<svg xmlns="http://www.w3.org/2000/svg" width="247.6" height="54.6" viewBox="0 0 247.6 54.6">
  <g id="Group_2" data-name="Group 2" transform="translate(-716 -663)">
    <g id="Layer_2" data-name="Layer 2" transform="translate(716.01 663.01)">
      <g id="Design">
        <path id="Path_278" data-name="Path 278" d="M27.29,54.59a27.3,27.3,0,1,1,27.3-27.3,27.3,27.3,0,0,1-27.3,27.3Zm0-51.66A24.36,24.36,0,1,0,51.65,27.29,24.36,24.36,0,0,0,27.29,2.93Z" fill="#3c5a99"/>
        <path id="Path_279" data-name="Path 279" d="M23,27.42V43.24a.41.41,0,0,0,.41.41H29.3a.41.41,0,0,0,.41-.41V27.16H34a.41.41,0,0,0,.41-.37l.41-4.85a.41.41,0,0,0-.41-.44h-4.7V18.06a1.46,1.46,0,0,1,1.46-1.46h3.28a.41.41,0,0,0,.41-.41V11.35a.41.41,0,0,0-.41-.42H28.91a5.9,5.9,0,0,0-5.9,5.9V21.5H20.08a.41.41,0,0,0-.42.41v4.84a.41.41,0,0,0,.42.41H23Z" fill="#3c5a99" fill-rule="evenodd"/>
      </g>
    </g>
    <g id="Layer_2-2" data-name="Layer 2" transform="translate(780.01 663.01)">
      <g id="Design-2" data-name="Design">
        <path id="Path_280" data-name="Path 280" d="M27.29,54.59a27.3,27.3,0,1,1,27.3-27.3,27.3,27.3,0,0,1-27.3,27.3Zm0-51.66A24.36,24.36,0,1,0,51.65,27.29,24.36,24.36,0,0,0,27.29,2.93Z" fill="#60fc7c"/>
        <path id="Path_281" data-name="Path 281" d="M28.58,9.53A16.48,16.48,0,0,0,14.73,34.94l-2.5,5.51a1.44,1.44,0,0,0,1.31,2,1.2,1.2,0,0,0,.38,0l6.9-1.89a16.48,16.48,0,1,0,7.76-31Zm0,30.07a13.62,13.62,0,0,1-6.85-1.85,1.41,1.41,0,0,0-.72-.19,1.2,1.2,0,0,0-.38,0l-4.51,1.23,1.57-3.45A1.46,1.46,0,0,0,17.55,34a13.6,13.6,0,1,1,11,5.65Z" fill="#60fc7c" fill-rule="evenodd"/>
        <path id="Path_282" data-name="Path 282" d="M34.92,28.47a2.85,2.85,0,0,0-2.41-.54c-.62.26-1,1.23-1.42,1.73a.59.59,0,0,1-.77.17,10.84,10.84,0,0,1-5.43-4.65.67.67,0,0,1,.08-.91,3.72,3.72,0,0,0,1-1.6,3.59,3.59,0,0,0-.44-1.89,4.54,4.54,0,0,0-1.4-2.11A1.91,1.91,0,0,0,22,19a4.22,4.22,0,0,0-1.47,3.34,5.49,5.49,0,0,0,.13,1.07,9.25,9.25,0,0,0,1,2.35,18.721,18.721,0,0,0,1.07,1.61,16.54,16.54,0,0,0,4.61,4.29A14.36,14.36,0,0,0,30.28,33a6.33,6.33,0,0,0,3.35.52,4.08,4.08,0,0,0,3-2.25,2,2,0,0,0,.14-1.16C36.63,29.33,35.56,28.86,34.92,28.47Z" fill="#60fc7c" fill-rule="evenodd"/>
      </g>
    </g>
    <g id="Layer_2-3" data-name="Layer 2" transform="translate(845.01 663.01)">
      <g id="Design-3" data-name="Design">
        <path id="Path_283" data-name="Path 283" d="M27.29,54.59a27.3,27.3,0,1,1,27.3-27.3,27.3,27.3,0,0,1-27.3,27.3Zm0-51.66A24.36,24.36,0,1,0,51.65,27.29,24.36,24.36,0,0,0,27.29,2.93Z" fill="red"/>
        <path id="Path_284" data-name="Path 284" d="M43.63,23.15a7,7,0,0,0-7-7H18.45a7,7,0,0,0-7,7v8.52a7,7,0,0,0,7,7H36.63a7,7,0,0,0,7-7ZM32.16,27.84l-7.25,4c-.31.17-.59-.06-.59-.42V23.24c0-.36.29-.59.6-.41L32.22,27a.47.47,0,0,1-.06.84Z" fill="red"/>
      </g>
    </g>
    <g id="Layer_2-4" data-name="Layer 2" transform="translate(909.01 663.01)">
      <g id="Design-4" data-name="Design">
        <path id="Path_285" data-name="Path 285" d="M27.29,54.59a27.3,27.3,0,1,1,27.3-27.3,27.3,27.3,0,0,1-27.3,27.3Zm0-51.66A24.36,24.36,0,1,0,51.65,27.29,24.36,24.36,0,0,0,27.29,2.93Z" fill="#3cf"/>
        <path id="Path_286" data-name="Path 286" d="M43,17.33a12.82,12.82,0,0,1-3.21.92c.51-.09,1.28-1,1.58-1.4a5.91,5.91,0,0,0,1.07-2v-.17a.2.2,0,0,0-.17,0,16.16,16.16,0,0,1-3.81,1.47.28.28,0,0,1-.27-.07,2.77,2.77,0,0,0-.33-.35A7,7,0,0,0,36,14.66a6.52,6.52,0,0,0-2.83-.46,7,7,0,0,0-2.69.76,7.08,7.08,0,0,0-2.18,1.78A6.65,6.65,0,0,0,27,19.33a7,7,0,0,0-.07,2.74c0,.16,0,.18-.13.16-5.24-.78-9.59-2.66-13.12-6.68-.15-.17-.23-.17-.36,0-1.54,2.31-.79,6,1.13,7.85.26.25.53.49.81.71a6.55,6.55,0,0,1-2.53-.71c-.15-.09-.23,0-.24.14a3.2,3.2,0,0,0,0,.75,6.73,6.73,0,0,0,4.14,5.36,4.29,4.29,0,0,0,.84.26A7.4,7.4,0,0,1,15,30c-.18,0-.25.06-.18.23a7,7,0,0,0,5.22,4.37,1.772,1.772,0,0,1,.71.1H20.7c-.58.89-2.61,1.56-3.56,1.89a12.76,12.76,0,0,1-5.41.69H11.3c-.08,0,0,.12.08.19.37.25.75.46,1.13.67a18.25,18.25,0,0,0,3.62,1.45c6.5,1.79,13.82.47,18.7-4.37C38.68,31.45,40,26.2,40,20.94c0-.2.24-.32.39-.43a12.67,12.67,0,0,0,2.53-2.64.78.78,0,0,0,.16-.51h0C43.1,17.25,43.11,17.27,43,17.33Z" fill="#3cf"/>
        <path id="Path_287" data-name="Path 287" d="M20.73,40.28Z" fill="#fff" fill-rule="evenodd"/>
        <path id="Path_288" data-name="Path 288" d="M20.73,40.28Z" fill="#fff" fill-rule="evenodd"/>
        <path id="Path_289" data-name="Path 289" d="M21.8,40.31c0-.05.57,0,0,0C21.8,40.28,21.87,40.31,21.8,40.31Z" fill="#fff" fill-rule="evenodd"/>
        <path id="Path_290" data-name="Path 290" d="M33.06,14.23a.12.12,0,0,1-.14,0Z" fill="#fff" fill-rule="evenodd"/>
      </g>
    </g>
  </g>
</svg>
