<svg xmlns="http://www.w3.org/2000/svg" width="55.46" height="85" viewBox="0 0 55.46 85">
  <g id="Layer_3" data-name="Layer 3" transform="translate(0.004 0.022)">
    <g id="Layer_1" data-name="Layer 1" transform="translate(-0.004 -0.022)">
      <path id="Path_192" data-name="Path 192" d="M53.058,120.62c-.542-.083-1.079-.146-1.626-.18H15.113l-.552.069a.809.809,0,0,0,0,1.317l.8.1H51.447c.542-.042,1.084-.1,1.621-.18.222,0,.4-.26.4-.572S53.28,120.616,53.058,120.62Z" transform="translate(-4.36 -36.93)" fill="#c6c6c6"/>
      <path id="Path_193" data-name="Path 193" d="M15.87,17.844c-.619,3.418-1.3,6.995-3.105,9.608s-4.526,3.91-6.8,5.879A17.415,17.415,0,0,0,.7,41.588,16.851,16.851,0,0,0,1,52.146c1.076,2.773,3.062,5.019,3.735,8.028.355,1.608.312,3.328.667,4.936,1.023,4.631,4.984,7.085,8.665,7.861s7.535.485,11.028,2.253c2.045,1.04,4.112,2.773,6.254,2.17,1.545-.464,2.691-2.08,4.166-2.891,2.088-1.151,4.483-.492,6.738-.839,3.144-.519,5.9-2.958,7.406-6.551,1.2-2.939,1.437-6.343,2.04-9.567.926-4.95,2.729-9.581,3.466-14.558s.145-10.808-2.906-14.038c-1.076-1.165-2.449-1.906-3.568-3.05-4.564-4.645-4.026-14-7.6-19.9a12.481,12.481,0,0,0-10.447-6,12.913,12.913,0,0,0-8.956,3.168C17.651,6.69,16.9,12.146,15.87,17.844Z" transform="translate(0.004 0.022)" fill="#f6f6f6"/>
      <path id="Path_194" data-name="Path 194" d="M50.018,50.043c-.049.984-.18,2.135-.36,3.383-.333,2.232-.846,4.77-1.386,7.237C46.989,66.321,45.5,71.555,45.5,71.555A66.669,66.669,0,0,1,44.313,81.5c-.062.36-.132.693-.194,1.068-.222,1.137-.444,2.232-.693,3.251-.79,3.6-1.5,6.2-1.5,6.2l-3.466-.652c-.159-1.962-.222-3.827-.222-5.546,0-1.1,0-2.135.076-3.133,0-.527.055-1.033.09-1.525.4-5.969,1.435-9.92,1.449-10.711a102.408,102.408,0,0,1,.582-10.447,57.623,57.623,0,0,1,2.468-12.478c2.232-5.137,5.588-4.783,6.69-1a10.856,10.856,0,0,1,.423,3.515Z" transform="translate(-18.829 -13.383)" fill="#f5a784"/>
      <path id="Path_195" data-name="Path 195" d="M65.893,86.861c0,1.386-.09,2.912-.215,4.458l-3.466.652s-.61-2.225-1.324-5.435c-.263-1.172-.541-2.475-.8-3.854-.076-.4-.146-.79-.222-1.192a66.143,66.143,0,0,1-1.151-9.983S57.2,66.236,55.938,60.552c-.548-2.44-1.061-4.964-1.386-7.175-.187-1.255-.312-2.406-.36-3.383a10.835,10.835,0,0,1,.36-3.529c1.123-3.785,4.465-4.159,6.69,1a56.985,56.985,0,0,1,2.461,12.4,105.155,105.155,0,0,1,.6,10.51c0,.783,1.019,4.666,1.435,10.551,0,.492.069.991.09,1.511Q65.92,84.538,65.893,86.861Z" transform="translate(-26.663 -13.361)" fill="#f5a784"/>
      <path id="Path_196" data-name="Path 196" d="M60.932,80.954a57.157,57.157,0,0,1-5.851.568,66.142,66.142,0,0,1-1.151-9.983s-1.511-5.269-2.773-10.953c-.548-2.44-1.061-4.964-1.386-7.175-.333,2.232-.846,4.77-1.386,7.237-1.283,5.657-2.773,10.891-2.773,10.891A66.671,66.671,0,0,1,44.4,81.487c-2.156-.1-4.159-.236-5.865-.374.4-5.969,1.435-9.92,1.449-10.711a102.4,102.4,0,0,1,.582-10.447,57.623,57.623,0,0,1,2.468-12.478c2.232-5.137,5.546-4.783,6.69-1,.853-2.891,3-3.771,4.964-1.747A9.186,9.186,0,0,1,56.419,47.5a33.053,33.053,0,0,1,1.1,3.972A73.185,73.185,0,0,1,58.9,59.9a105.162,105.162,0,0,1,.6,10.51C59.5,71.186,60.516,75.082,60.932,80.954Z" transform="translate(-20.524 -13.368)" fill="#ab8da8"/>
      <path id="Path_197" data-name="Path 197" d="M61.311,51.968C59.37,49.888,50.85,49.3,50.85,49.3l7.626-4.049A9.186,9.186,0,0,1,60.2,48.023a33.055,33.055,0,0,1,1.109,3.945Z" transform="translate(-24.833 -13.866)" fill="#826b80"/>
      <path id="Path_198" data-name="Path 198" d="M41.792,116.362a.561.561,0,0,1,0,.111c-.118,1.594-1.386,1.386-3.348,1.386-1.539,0-2.357-.86-2.267-1.789a1.6,1.6,0,0,1,.291-.776,7.258,7.258,0,0,0,.971-2.246,1.685,1.685,0,0,1,.568-.908,2.157,2.157,0,0,1,2.96.312,1.747,1.747,0,0,1,.513.887A12.77,12.77,0,0,1,41.792,116.362Z" transform="translate(-17.18 -34.239)" fill="#3b2645"/>
      <path id="Path_199" data-name="Path 199" d="M68.514,117.877c-1.976,0-3.328.229-3.355-1.49a1.019,1.019,0,0,1,0-.146,12.187,12.187,0,0,1,.305-2.773,1.9,1.9,0,0,1,.582-1.005,2.156,2.156,0,0,1,2.738-.4,1.893,1.893,0,0,1,.77,1.1,7.009,7.009,0,0,0,.929,2.17,1.692,1.692,0,0,1,.222.43C71.058,116.775,70.24,117.9,68.514,117.877Z" transform="translate(-30.951 -34.263)" fill="#3b2645"/>
      <path id="Path_200" data-name="Path 200" d="M56.349,10.7a1.5,1.5,0,0,0,.354-.776,4.52,4.52,0,0,1,.243-1.331,3.12,3.12,0,0,0,.319-.624.693.693,0,0,0-.187-.645c-.125-.125-.291-.208-.347-.374a.894.894,0,0,1,0-.305.936.936,0,0,0-.534-.693,3.355,3.355,0,0,0-.922-.27,2.08,2.08,0,0,1-.894-.34,3.119,3.119,0,0,0-.347-.27,1.172,1.172,0,0,0-.714-.083,6.239,6.239,0,0,0-1.386.409,1.99,1.99,0,0,1-.506.173c-.263.042-.541-.049-.8,0a1.386,1.386,0,0,0-.873.811.88.88,0,0,1-.215.284,1.338,1.338,0,0,1-.367.118,1.081,1.081,0,0,0-.659.763,2.87,2.87,0,0,0,0,1.061,7.577,7.577,0,0,0,.118,1.04c.693,2.856.915,2.038.915,2.038.693-.062,1.435-.139,2.149-.215.964-.1,1.927-.215,2.884-.354.381-.062.763-.139,1.144-.194A.915.915,0,0,0,56.349,10.7Z" transform="translate(-23.434 -1.509)" fill="#3b2645"/>
      <path id="Path_201" data-name="Path 201" d="M49.146,12.8a.763.763,0,0,0-1.22.055c-.589.756.5,2.135,1.3,2.17A17.046,17.046,0,0,0,49.146,12.8Z" transform="translate(-22.208 -3.825)" fill="#e0855c"/>
      <path id="Path_202" data-name="Path 202" d="M59.535,22.176a43.029,43.029,0,0,0-1.865,6.149c-.055.27-.1.527-.153.79s-.069.444-.1.652a2.891,2.891,0,0,1-.055.492c-.222,2.114-.638,8.028-.693,9.012a1.089,1.089,0,0,1,0,.139,24.435,24.435,0,0,1-11.307.354,1.72,1.72,0,0,0-.042-.312C45.2,38.467,44,28.006,43.937,27.583c-.243-2.482-.423-4.776-.437-6.2,0-.208.187-.326.464-.4.444-.132,1.075-.153,1.574-.243a23.4,23.4,0,0,1,2.773-.291h.541l.18-2.828a1.913,1.913,0,0,0,.277.042,4.984,4.984,0,0,0,.541.042,6.523,6.523,0,0,0,.659-.035.757.757,0,0,0,.305-.042l.416-.076a5.3,5.3,0,0,0,.638-.2.867.867,0,0,0,.187-.069H52.1l.146-.055A5.192,5.192,0,0,0,53,16.81c.132-.083.25-.159.333-.222l.062-.049a.978.978,0,0,0,.125-.1l.076-.062v.187q-.1.811-.125,1.629v2.211h.444a13.214,13.214,0,0,1,1.726.153,14.856,14.856,0,0,1,3.161.763,3.182,3.182,0,0,1,.367.173C59.3,21.579,59.583,22.03,59.535,22.176Z" transform="translate(-22.039 -5.01)" fill="#f5a784"/>
      <path id="Path_203" data-name="Path 203" d="M56.019,16.34a3.466,3.466,0,0,1-4.659,2.731l.09-1.47A5.719,5.719,0,0,0,56.019,16.34Z" transform="translate(-24.271 -4.997)" fill="#e0855c"/>
      <path id="Path_204" data-name="Path 204" d="M49.692,9.405a4.143,4.143,0,0,0-.4,2.44c0,3.189.977,4.159,2.614,4.277s3.314-.548,3.57-3.515c.132-1.477.277-2.849-.277-3.466C54.365,8.213,50.905,8.067,49.692,9.405Z" transform="translate(-23.499 -2.569)" fill="#f5a784"/>
      <path id="Path_205" data-name="Path 205" d="M57.774,13.483s.458-1.338,1.262-.659-.215,2.7-1.386,2.586C57.614,15.411,57.4,13.948,57.774,13.483Z" transform="translate(-26.803 -3.86)" fill="#f5a784"/>
      <path id="Path_206" data-name="Path 206" d="M58.834,13.789a1.1,1.1,0,0,0-.471.326,1.276,1.276,0,0,0-.333.458c0,.055.055.083.09.049s.173-.215.27-.319a.582.582,0,0,0,.236.173c.069,0,.125-.062.09-.125a.582.582,0,0,0-.194-.173,3.133,3.133,0,0,0,.367-.3.055.055,0,0,0-.055-.09Z" transform="translate(-26.907 -4.214)" fill="#e0855c"/>
      <path id="Path_207" data-name="Path 207" d="M51.192,12.849s-.27.111-.243-.374.222-.388.222-.388.194,0,.173.374S51.192,12.849,51.192,12.849Z" transform="translate(-23.569 -3.69)" fill="#3b2645"/>
      <path id="Path_208" data-name="Path 208" d="M55.219,12.728s-.27.111-.25-.381.222-.381.222-.381.194,0,.18.374S55.219,12.728,55.219,12.728Z" transform="translate(-25.43 -3.652)" fill="#3b2645"/>
      <path id="Path_209" data-name="Path 209" d="M52.856,13.939c-.139,0-.451.076-.527-.069a4.16,4.16,0,0,1,.173-1,13.422,13.422,0,0,0,.284-1.331h-.055a15.73,15.73,0,0,0-.562,2.4.076.076,0,0,0,.069.09h.61C52.911,14.07,52.932,13.939,52.856,13.939Z" transform="translate(-24.173 -3.525)" fill="#e0855c"/>
      <path id="Path_210" data-name="Path 210" d="M51.581,11.049a4.062,4.062,0,0,0-.506,0,3.6,3.6,0,0,0-.541-.069.1.1,0,0,0-.069.18,1.241,1.241,0,0,0,1.151.153.133.133,0,0,0-.035-.263Z" transform="translate(-23.432 -3.353)" fill="#3b2645"/>
      <path id="Path_211" data-name="Path 211" d="M55.827,10.529a2.017,2.017,0,0,1-.776.257,1.023,1.023,0,0,0-.527.09.076.076,0,0,0,0,.09c.277.4,1.179-.069,1.386-.354C55.945,10.557,55.875,10.515,55.827,10.529Z" transform="translate(-25.34 -3.214)" fill="#3b2645"/>
      <path id="Path_212" data-name="Path 212" d="M54.006,16.2a3.265,3.265,0,0,0-.9,0c-.208,0-.5-.035-.645.132.166.153.444.09.645.083a4.853,4.853,0,0,0,.9,0,.107.107,0,0,0,0-.215Z" transform="translate(-24.416 -4.944)" fill="#e0855c"/>
      <path id="Path_213" data-name="Path 213" d="M67.507,69.062H17.794a.464.464,0,0,1-.464-.464.458.458,0,0,1,.464-.458H67.507a.458.458,0,0,1,.464.458.464.464,0,0,1-.464.464Z" transform="translate(-17.33 -20.887)" fill="#3b2645"/>
      <path id="Path_214" data-name="Path 214" d="M19.882,70.1a.79.79,0,0,1-.783-.79V66.128a.79.79,0,1,1,1.574,0V69.31A.79.79,0,0,1,19.882,70.1Z" transform="translate(-8.883 -20.005)" fill="#3b2645"/>
      <path id="Path_215" data-name="Path 215" d="M22.16,71.712a.79.79,0,0,1-.79-.79V62.173a.79.79,0,0,1,1.574,0v8.749a.79.79,0,0,1-.783.79Z" transform="translate(-9.941 -18.837)" fill="#291b30"/>
      <path id="Path_216" data-name="Path 216" d="M24.43,72.546a.79.79,0,0,1-.79-.8V60.65a.79.79,0,0,1,1.581,0V71.742a.79.79,0,0,1-.79.8Z" transform="translate(-10.997 -18.347)" fill="#3b2645"/>
      <path id="Path_217" data-name="Path 217" d="M86.1,70.1a.79.79,0,0,0,.783-.79V66.128a.79.79,0,1,0-1.574,0V69.31a.79.79,0,0,0,.79.79Z" transform="translate(-42.141 -20.005)" fill="#3b2645"/>
      <path id="Path_218" data-name="Path 218" d="M83.823,71.712a.79.79,0,0,0,.79-.79V62.173a.79.79,0,0,0-1.574,0v8.749a.79.79,0,0,0,.783.79Z" transform="translate(-41.446 -18.837)" fill="#291b30"/>
      <path id="Path_219" data-name="Path 219" d="M81.538,72.546a.79.79,0,0,0,.763-.8V60.65a.79.79,0,1,0-1.581,0V71.742a.79.79,0,0,0,.818.8Z" transform="translate(-37.557 -18.347)" fill="#3b2645"/>
      <path id="Path_220" data-name="Path 220" d="M43.54,28.8a14,14,0,0,1-1.2,2.912c-.208.423-1.04,2.225-1.068,2.295-1.3,2.863-3.12,7.023-3.251,7.508-.43,1.6-1.3,10.891-1.3,10.9a2.24,2.24,0,0,1-2.579.693,6,6,0,0,0-.069-.763c-.159-2.073-.652-7.848-.125-11.314.153-.957.728-3.258,1.421-5.865.562-2.156.811-4.159,1.49-6.239a17.047,17.047,0,0,1,2.523-4.943A3.314,3.314,0,0,1,40.954,23c.263,0,.374.333.6.43a2.967,2.967,0,0,1,1.435,1.386A6.038,6.038,0,0,1,43.54,28.8Z" transform="translate(-16.41 -7.04)" fill="#f5a784"/>
      <path id="Path_221" data-name="Path 221" d="M34.062,66.835c0-.319.062-.638.076-.943v-.811a2.031,2.031,0,0,1,2.329-.374,4.554,4.554,0,0,1,.471.43c.277.263.61.478.873.77a1.241,1.241,0,0,1,.388,1.019,1.387,1.387,0,0,0-.873.444c-.263.326-.153.624-.277.984s-.437.4-.742.444c-.922.159-2.2.208-2.309-.971A6.842,6.842,0,0,1,34.062,66.835Z" transform="translate(-16.028 -19.769)" fill="#f5a784"/>
      <path id="Path_222" data-name="Path 222" d="M70.756,52.469c-.042.485-.076.763-.076.763a2.228,2.228,0,0,1-2.579-.693s-.867-9.3-1.3-10.9c-.069-.27-.631-1.581-1.324-3.175s-2.925-6.475-2.995-6.627a13.289,13.289,0,0,1-1.2-2.912,5.99,5.99,0,0,1,.548-3.945,2.953,2.953,0,0,1,1.442-1.386,1.428,1.428,0,0,1,.693-.146,1.144,1.144,0,0,1,.222.042,1.5,1.5,0,0,1,.367.173,3.036,3.036,0,0,1,.485.409,12.083,12.083,0,0,1,2.773,4.763c.693,2.128,1.123,4.416,1.664,6.468.693,2.607,1.262,4.908,1.386,5.865C71.45,44.628,70.964,50.4,70.756,52.469Z" transform="translate(-29.784 -7.178)" fill="#f5a784"/>
      <path id="Path_223" data-name="Path 223" d="M73.3,66.835c0-.347-.035-.693-.042-.943v-.811a2.038,2.038,0,0,0-2.329-.374,3.466,3.466,0,0,0-.471.43c-.284.263-.61.478-.873.77a1.248,1.248,0,0,0-.4,1.019,7.272,7.272,0,0,1,.929.326c.27.27.069.506.062.818,0,.437.305.582.693.693l.8.139a1.983,1.983,0,0,0,1.255-.111.381.381,0,0,0,.153-.125.5.5,0,0,0,.069-.166,4.624,4.624,0,0,0,.146-1.664Z" transform="translate(-32.606 -19.77)" fill="#f5a784"/>
      <path id="Path_224" data-name="Path 224" d="M56.059,30.1l.388,11.092c-6.544,2.551-13.629.173-13.629.173l-.153-10.641-.215-.062a9.071,9.071,0,0,1-1.005-.347c-.2-.076-.409-.159-.61-.257A24.664,24.664,0,0,1,38.25,28.67a17.047,17.047,0,0,1,2.523-4.943,3.314,3.314,0,0,1,1.574-.977c.444-.125,1.075-.153,1.574-.243a23.4,23.4,0,0,1,2.773-.291l2.579,6.378a55.627,55.627,0,0,0,2.9-6.433h.118a13.213,13.213,0,0,1,1.726.153,15.3,15.3,0,0,1,3.161.763,1.5,1.5,0,0,1,.367.173,3.037,3.037,0,0,1,.485.409A12.083,12.083,0,0,1,60.8,28.42a26.031,26.031,0,0,1-2.62,1.047C57,29.855,56.059,30.1,56.059,30.1Z" transform="translate(-20.397 -6.783)" fill="#3b2645"/>
      <path id="Path_225" data-name="Path 225" d="M44.08,29.23V32.9l-.215-.062a9.071,9.071,0,0,1-1.005-.347C43.553,30.922,44.08,29.23,44.08,29.23Z" transform="translate(-19.906 -8.951)" fill="#27192e"/>
      <path id="Path_226" data-name="Path 226" d="M41.036,114.753a2.233,2.233,0,0,0-2.163-.118.125.125,0,0,0,0,.118v.042c0,.049.076.069.118.049h.049a.943.943,0,0,1,.409-.125,2.016,2.016,0,0,1,.541.055,5.136,5.136,0,0,0,1.019.173A.107.107,0,0,0,41.036,114.753Z" transform="translate(-18.137 -35.077)" fill="#27192e"/>
      <path id="Path_227" data-name="Path 227" d="M41.467,116.16a1.754,1.754,0,0,0-1.151-.4,1.816,1.816,0,0,0-1.2.125c-.055.042-.083.146,0,.18a3.266,3.266,0,0,0,1.012.1,5.588,5.588,0,0,0,1.248.208.125.125,0,0,0,.09-.215Z" transform="translate(-18.252 -35.479)" fill="#27192e"/>
      <path id="Path_228" data-name="Path 228" d="M68.977,114.239a2.08,2.08,0,0,0-2.419.257c-.069.09,0,.27.111.256.36,0,.693-.215,1.061-.25s.749.1,1.116.055C68.984,114.544,69.116,114.357,68.977,114.239Z" transform="translate(-31.096 -34.944)" fill="#27192e"/>
      <path id="Path_229" data-name="Path 229" d="M69.416,115.659a3.9,3.9,0,0,0-1.449-.083,1.172,1.172,0,0,0-.936.284c-.1.125,0,.367.173.3.693-.243,1.511.125,2.211-.132a.194.194,0,0,0,0-.367Z" transform="translate(-31.319 -35.428)" fill="#27192e"/>
      <path id="Path_230" data-name="Path 230" d="M24.4,103.712l-.055-.1a3.854,3.854,0,0,1-.153-2.433,2.241,2.241,0,0,1,.111-.527c.215-.853.513-4.305-5.331-4.367-5.837.062-5.546,3.515-5.324,4.367.055.229.1.437.132.631a3.861,3.861,0,0,1-.173,2.329l-.049.083a6.191,6.191,0,1,0,10.842,0Zm-2.121-2.87a.347.347,0,0,1,0,.09.763.763,0,0,1-.3.326,2.253,2.253,0,0,1-1.775-.083,4.076,4.076,0,0,0-2.953.132,1.435,1.435,0,0,1-1.269,0,.735.735,0,0,1-.229-.263,1.608,1.608,0,0,1-.083-.291,3.875,3.875,0,0,1,0-.776c.125-2.128,3.355-1.906,3.355-1.906s3.237-.222,3.355,1.906a2.919,2.919,0,0,1-.1.873Z" transform="translate(-3.92 -29.519)" fill="#ab8da8"/>
      <path id="Path_231" data-name="Path 231" d="M24.632,100.657c-.049.187-.083.36-.111.527a5.3,5.3,0,0,1-1.913-.333,2.919,2.919,0,0,0,.049-.887c-.118-2.128-3.355-1.906-3.355-1.906s-3.231-.222-3.355,1.906a3.875,3.875,0,0,0,0,.776,8.762,8.762,0,0,1-1.865.548c-.035-.194-.076-.4-.132-.631-.222-.853-.513-4.305,5.324-4.367C25.145,96.352,24.847,99.8,24.632,100.657Z" transform="translate(-4.248 -29.522)" fill="#826b80"/>
      <circle id="Ellipse_11" data-name="Ellipse 11" cx="2.107" cy="2.107" r="2.107" transform="translate(9.869 75.073)" fill="#826b80"/>
      <path id="Path_232" data-name="Path 232" d="M16.312,106.769c-.894.562-1.075,2.038-.957,2.988,0,.159.263.229.305.042.1-.534.083-1.081.215-1.608a5.026,5.026,0,0,1,.61-1.269.118.118,0,0,0-.173-.153Z" transform="translate(-4.698 -32.73)" fill="#e8cee5"/>
      <path id="Path_233" data-name="Path 233" d="M27.34,113.735a.128.128,0,0,0-.236-.062,5.456,5.456,0,0,1-.617,1.179c-.222.256-.6.478-.638.832a.062.062,0,0,0,.055.055c.381,0,.756-.5.977-.776A1.872,1.872,0,0,0,27.34,113.735Z" transform="translate(-12.021 -34.836)" fill="#e8cee5"/>
      <path id="Path_234" data-name="Path 234" d="M31.964,15.608c-2.4.437-4.853.069-7.2.964-.153.062-.153.326.042.312,1.386-.076,2.773-.36,4.215-.451,1.019-.055,2.225.159,3.147-.347C32.436,15.933,32.242,15.552,31.964,15.608Z" transform="translate(-11.84 -4.771)" fill="#e8cee5"/>
      <path id="Path_235" data-name="Path 235" d="M34.748,10.112a32.582,32.582,0,0,0-3.6-1.567c-.215-.069-.333.25-.153.36a30.787,30.787,0,0,0,3.466,1.719C34.79,10.778,35.13,10.286,34.748,10.112Z" transform="translate(-14.554 -2.603)" fill="#e8cee5"/>
    </g>
  </g>
</svg>
