<svg xmlns="http://www.w3.org/2000/svg" width="67.821" height="75" viewBox="0 0 67.821 75">
  <g id="Layer_4" data-name="Layer 4" transform="translate(-0.001 0)">
    <g id="Layer_1" data-name="Layer 1" transform="translate(0.001 0)">
      <path id="Path_236" data-name="Path 236" d="M68.559,110.074c-.737.081-1.474.142-2.224.176H5.436l-.973-.088a.676.676,0,0,1,0-1.291q.487-.054.973-.081H66.328a20.388,20.388,0,0,1,2.231.176.554.554,0,0,1,0,1.109Z" transform="translate(-1.292 -35.25)" fill="#c6c6c6"/>
      <path id="Path_237" data-name="Path 237" d="M19.212,63.319c-1.352-.94-2.575-2.17-4.184-2.515a15.121,15.121,0,0,0-3.664.041,8.382,8.382,0,0,1-8.4-9.612c.554-3.772,3.644-7.091,3.164-10.877-.311-2.5-2.075-4.475-3.488-6.557C.413,30.48-.933,26.093.771,22.47c1.852-3.934,6.537-5.631,9.288-8.991,1.933-2.366,2.826-5.462,4.813-7.781a15.975,15.975,0,0,1,7.713-4.5A22.247,22.247,0,0,1,34.415.521a17.657,17.657,0,0,1,10.816,8.3,20.34,20.34,0,0,1,2.265,13.52c-.426,2.427-1.257,4.941-.5,7.287s3.028,3.968,4.827,5.7A13.418,13.418,0,0,1,55.634,41.1a7.585,7.585,0,0,1-.987,6.672c-.831,1.1-2.028,1.893-2.873,2.968-2.609,3.272-1.609,8.112-3.089,12.033a10.1,10.1,0,0,1-12.377,5.746c-2.1-.737-3.873-2.163-5.84-3.191C26.756,63.387,22.619,65.706,19.212,63.319Z" transform="translate(-0.001 0)" fill="#f6f6f6"/>
      <path id="Path_238" data-name="Path 238" d="M24.192,32.576s-.183.825-.493,2.028a53.964,53.964,0,0,1-2.528,7.868,9.376,9.376,0,0,1-1.082,1.893c-1.947,2.461-9.761-3.177-10.755-3.907a.365.365,0,0,0-.23-.081c-.554,0-2.744-.122-2.7-1.649.041-1.663,1.19-3.758,3.7-1.393,1.548,1.453,7.017,3.265,7.017,3.265L18.9,29.109a.784.784,0,0,1,1.318-.453C21.177,29.568,22.684,31.022,24.192,32.576Z" transform="translate(-2.074 -9.215)" fill="#f5a784"/>
      <path id="Path_239" data-name="Path 239" d="M30.73,37.424a53.964,53.964,0,0,1-2.535,7.848c-.034-3.326-.115-7.889-.115-7.889a2.859,2.859,0,0,1,2.65.041Z" transform="translate(-9.099 -12.014)" fill="#e0855c"/>
      <path id="Path_240" data-name="Path 240" d="M32.212,58.859c-1.447,1.027-3.055,2.028-4.664,2.981-.764.466-1.494.933-2.183,1.393a67.147,67.147,0,0,0-5.881,4.374A19.583,19.583,0,0,1,21.9,73.338c1.528,5.083,2.744,11.431,2.744,11.431a2.39,2.39,0,0,1-2.555.71C21,83.37,18.665,78.922,16.678,74.785c-1.839-3.853-3.38-7.436-3.2-8.558s3.143-4.421,6.246-7.571c3.434-3.481,7-6.76,7-6.76a22.842,22.842,0,0,1,4.475-3.7c1.649-.973,3.461-1.528,4.84-.622a4.123,4.123,0,0,1,1.48,2.028c.047.122.088.243.128.365C38.742,53.316,36,56.2,32.212,58.859Z" transform="translate(-4.362 -15.265)" fill="#f5a784"/>
      <path id="Path_241" data-name="Path 241" d="M68.126,73.246c-3.8.183-7.754.615-10.951.865a21.315,21.315,0,0,1-6,0c-2.028-.595-5.408-5.448-7.591-9-1.318-2.109-2.231-3.758-2.231-3.758s-.548-.723-1.21-1.818c-1.751-2.927-4.3-8.517.676-10.032a4.087,4.087,0,0,1,4.732,1.1c1.548,1.69,2.562,4.786,4.015,8.484.365.933,3.975,9.883,3.975,9.883a15.393,15.393,0,0,1,3.6-.3,59.189,59.189,0,0,1,11.248,1.5C69.56,71.651,68.126,73.246,68.126,73.246Z" transform="translate(-12.284 -15.944)" fill="#f5a784"/>
      <path id="Path_242" data-name="Path 242" d="M29.982,15.576c1.453-.406,2.907-.831,4.34-1.3.845-.277,1.778-.291,2.089-1.264a2.805,2.805,0,0,0-.433-2.386,3.38,3.38,0,0,0-1.906-1.19,5.361,5.361,0,0,0-2.271,0,3.887,3.887,0,0,0-2.7,1.643,3.758,3.758,0,0,0-.379,2.136,3.826,3.826,0,0,0,.642,1.8c.041.081.365.744.534.676C29.941,15.678,29.968,15.576,29.982,15.576Z" transform="translate(-9.297 -3.017)" fill="#3b2645"/>
      <path id="Path_243" data-name="Path 243" d="M29.4,16.779a.737.737,0,0,0-1.169.25c-.433.825.845,1.954,1.622,1.852A16.541,16.541,0,0,0,29.4,16.779Z" transform="translate(-9.119 -5.375)" fill="#e0855c"/>
      <path id="Path_244" data-name="Path 244" d="M41.087,23.325a45.838,45.838,0,0,0-.723,7v.629c.074,1.44.811,8.227.926,9.295v.142a24.113,24.113,0,0,1-10.721,2.312h-.074a1.461,1.461,0,0,0-.088-.291c-.419-1.251-2.028-6.395-3.319-10.937l-.014-.216c-.676-2.339-1.663-4.123-1.927-5.482-.1-.507,1.494-1.088,2.265-1.352l.352-.122c.615-.21,1.244-.392,1.744-.521l1.048-.243L30.231,20.8a1.906,1.906,0,0,0,.277,0,4.238,4.238,0,0,0,.521-.054q.331-.061.629-.142l.284-.095a3.272,3.272,0,0,0,.385-.155,4.685,4.685,0,0,0,.581-.3.946.946,0,0,0,.162-.1h.047l.128-.081a5.725,5.725,0,0,0,.676-.514l.284-.277.047-.054.1-.115.068-.081v.061a.818.818,0,0,0,0,.128c.034.453.095,1.034.189,1.609.061.392.122.777.183,1.115.108.588.2,1.007.2,1.007a3.833,3.833,0,0,1,.385-.068.041.041,0,0,1,.041,0l.21-.034a12.782,12.782,0,0,1,1.474-.128h.6a10.87,10.87,0,0,1,3.218.534A.291.291,0,0,1,41.087,23.325Z" transform="translate(-8.148 -6.102)" fill="#f5a784"/>
      <path id="Path_245" data-name="Path 245" d="M36.824,18.75a3.38,3.38,0,0,1-4,3.434l-.169-1.426a5.577,5.577,0,0,0,4.164-2.008Z" transform="translate(-10.583 -6.076)" fill="#e0855c"/>
      <path id="Path_246" data-name="Path 246" d="M29.5,13.07a4.046,4.046,0,0,0,.041,2.413c.548,3.055,1.663,3.813,3.251,3.65s3.082-1.109,2.812-4c-.128-1.447-.23-2.785-.872-3.285C33.771,11.11,30.459,11.576,29.5,13.07Z" transform="translate(-9.504 -3.728)" fill="#f5a784"/>
      <path id="Path_247" data-name="Path 247" d="M38.127,15.879s.2-1.352,1.1-.852.264,2.63-.913,2.7C38.31,17.758,37.85,16.385,38.127,15.879Z" transform="translate(-12.326 -4.833)" fill="#f5a784"/>
      <path id="Path_248" data-name="Path 248" d="M31.439,16.509s-.243.155-.3-.318.149-.412.149-.412.183-.041.23.331S31.439,16.509,31.439,16.509Z" transform="translate(-10.085 -5.112)" fill="#3b2645"/>
      <path id="Path_249" data-name="Path 249" d="M35.379,15.649s-.243.155-.3-.318.149-.412.149-.412.183-.041.23.331S35.379,15.649,35.379,15.649Z" transform="translate(-11.362 -4.833)" fill="#3b2645"/>
      <path id="Path_250" data-name="Path 250" d="M33.435,17.2c-.142,0-.426.149-.521,0a4,4,0,0,1,0-.987,11.749,11.749,0,0,0,.041-1.352h-.047a14.526,14.526,0,0,0-.122,2.427.074.074,0,0,0,.081.068c.2-.047.392-.047.588-.088C33.509,17.3,33.5,17.192,33.435,17.2Z" transform="translate(-10.621 -4.815)" fill="#e0855c"/>
      <path id="Path_251" data-name="Path 251" d="M31.245,14.671a.636.636,0,0,0-.676.216.068.068,0,0,0,.068.081c.095,0,.169-.088.257-.115a.771.771,0,0,1,.3,0,.094.094,0,1,0,.047-.183Z" transform="translate(-9.905 -4.748)" fill="#3b2645"/>
      <path id="Path_252" data-name="Path 252" d="M35.349,14.073c-.169-.25-.635-.176-.8,0a.081.081,0,0,0,.061.122,2.251,2.251,0,0,0,.358-.074,1.21,1.21,0,0,1,.311,0A.074.074,0,0,0,35.349,14.073Z" transform="translate(-11.19 -4.508)" fill="#3b2645"/>
      <path id="Path_253" data-name="Path 253" d="M34.246,19.046c-.3.149-.453.379-.811.439a1.048,1.048,0,0,1-.521,0c-.1,0-.095-.047-.2-.041a.041.041,0,0,0-.041.061c.081.3.554.25.784.21a1.109,1.109,0,0,0,.859-.575C34.333,19.079,34.286,19.012,34.246,19.046Z" transform="translate(-10.587 -6.169)" fill="#e0855c"/>
      <path id="Path_254" data-name="Path 254" d="M45.753,61.265c-.21.149-.406.3-.6.426s-.318.223-.473.324a17.2,17.2,0,0,1-6,2.643c-1.318-2.116-2.231-3.765-2.231-3.765s-.548-.723-1.21-1.818C33.789,60.1,32.18,61.1,30.571,62.056c-.764.466-1.494.933-2.183,1.393-.676-.4-1.257-.791-1.8-1.176a20.158,20.158,0,0,1-3.819-3.38c3.434-3.481,7-6.76,7-6.76a22.842,22.842,0,0,1,4.475-3.7,12.485,12.485,0,0,1,4.84-.622,4.123,4.123,0,0,1,1.48,2.028c.047.122.088.243.128.365,1.548,1.69,2.562,4.786,4.015,8.484C45.071,59.554,45.422,60.44,45.753,61.265Z" transform="translate(-7.379 -15.481)" fill="#ab8da8"/>
      <path id="Path_255" data-name="Path 255" d="M26.183,97.341a2.39,2.39,0,0,1-2.555.71c-1.082-2.109-3.42-6.557-5.408-10.694a24.68,24.68,0,0,0,5.192-1.447C24.966,90.993,26.183,97.341,26.183,97.341Z" transform="translate(-5.904 -27.837)" fill="#e8cee5"/>
      <path id="Path_256" data-name="Path 256" d="M26.962,103.155a.635.635,0,0,1,0,.2,1.264,1.264,0,0,1-.46.777,3.664,3.664,0,0,1-.98.514,32.129,32.129,0,0,1-4.056,1.744c-.879.23-2.7.676-3.082-.548a.446.446,0,0,1,0-.061,1.392,1.392,0,0,1,0-.372,1.791,1.791,0,0,1,.047-.3c.128-.453.541-1.021,1.663-1.352a2.839,2.839,0,0,0,.629-.277A2.773,2.773,0,0,0,21,103.3l.054-.047a3.778,3.778,0,0,0,.284-.27l.088-.108.034-.041.1-.149a2.514,2.514,0,0,0,.142-.264h0c.081-.162.128-.291.183-.412.169-.439.291-.8.676-.9.9-.23,2.224,0,2.258.913,0,0,1.122-.128,1.21-.8.068-.426.291-.088.385.128.149.372.128.8.3,1.19a1.549,1.549,0,0,0,.068.155,1.6,1.6,0,0,1,.169.487.088.088,0,0,1,.014-.027Z" transform="translate(-5.953 -32.732)" fill="#3b2645"/>
      <path id="Path_257" data-name="Path 257" d="M77.345,82.576c-3.8.183-7.754.615-10.951.865a14.02,14.02,0,0,0,.257-3.414A7.943,7.943,0,0,0,66.36,78a59.189,59.189,0,0,1,11.248,1.5C78.778,80.981,77.345,82.576,77.345,82.576Z" transform="translate(-21.502 -25.274)" fill="#e8cee5"/>
      <path id="Path_258" data-name="Path 258" d="M85.521,85.94c-.054.906-.216,2.765-1.467,2.765h-.068a1.352,1.352,0,0,1-.439-.128.9.9,0,0,1-.189-.108,2.242,2.242,0,0,1-.8-2.028,2.8,2.8,0,0,0-.068-.676,1.24,1.24,0,0,0-.081-.311.2.2,0,0,1,0-.068c-.054-.122-.1-.216-.149-.3a1.725,1.725,0,0,0-.095-.162v-.047a.992.992,0,0,1-.068-.088,2.413,2.413,0,0,0-.25-.27H81.8l-.3-.264c-.365-.3-.676-.521-.676-.913.061-.926.676-2.123,1.568-1.866,0,0,.223-1.109-.385-1.406-.385-.189,0-.3.237-.318.406-.034.8.122,1.224.088a.676.676,0,0,1,.169,0,1.46,1.46,0,0,1,.514,0H84.2a1.169,1.169,0,0,1,.784.737,3.509,3.509,0,0,1,.183,1.1C85.21,83.053,85.6,84.432,85.521,85.94Z" transform="translate(-26.191 -25.838)" fill="#3b2645"/>
      <path id="Path_259" data-name="Path 259" d="M23.33,105.212c-.3-.311-.581-.676-.9-.967l-.1-.095a3.778,3.778,0,0,0,.284-.27c.041.041.074.081.115.115a5.658,5.658,0,0,1,.852.987C23.682,105.131,23.459,105.36,23.33,105.212Z" transform="translate(-7.236 -33.659)" fill="#e8cee5"/>
      <path id="Path_260" data-name="Path 260" d="M24.375,104.036a.142.142,0,0,1-.2.183,4.955,4.955,0,0,1-.852-.676c-.081-.068-.169-.128-.257-.189a2.513,2.513,0,0,0,.142-.264h0a1.068,1.068,0,0,1,.284.162A2.244,2.244,0,0,1,24.375,104.036Z" transform="translate(-7.476 -33.403)" fill="#e8cee5"/>
      <path id="Path_261" data-name="Path 261" d="M26.962,104.47a1.264,1.264,0,0,1-.46.777,3.664,3.664,0,0,1-.98.514,32.129,32.129,0,0,1-4.056,1.744c-.879.23-2.7.676-3.082-.548a.446.446,0,0,1,0-.061,1.392,1.392,0,0,1,0-.372c1.737,1.169,3.38.115,5.165-.453C24.88,105.646,26.165,105.4,26.962,104.47Z" transform="translate(-5.953 -33.85)" fill="#e8cee5"/>
      <path id="Path_262" data-name="Path 262" d="M83.426,85.847a.676.676,0,0,1-.3.291,3.771,3.771,0,0,0-.406.331,2.143,2.143,0,0,0-.2.237,2.412,2.412,0,0,0-.25-.27H82.23a2.2,2.2,0,0,1,.155-.2c.21-.223.615-.676.946-.541A.162.162,0,0,1,83.426,85.847Z" transform="translate(-26.645 -27.76)" fill="#e8cee5"/>
      <path id="Path_263" data-name="Path 263" d="M83.934,87.026a6.712,6.712,0,0,1-.886.676c-.054-.122-.1-.216-.149-.3a1.6,1.6,0,0,1,.933-.548.115.115,0,0,1,.1.176Z" transform="translate(-26.862 -28.141)" fill="#e8cee5"/>
      <path id="Path_264" data-name="Path 264" d="M86.824,85.945c-.054.906-.216,2.765-1.467,2.765h-.068a1.352,1.352,0,0,1-.439-.128c1.839-.717,1.433-3.123,1.257-4.84a13.519,13.519,0,0,0-.642-3.982,1.156,1.156,0,0,1,.764.73,3.508,3.508,0,0,1,.183,1.1A34.613,34.613,0,0,1,86.824,85.945Z" transform="translate(-27.494 -25.844)" fill="#e8cee5"/>
      <path id="Path_265" data-name="Path 265" d="M53.022,62.628c-.162.122-.318.223-.473.324a95.116,95.116,0,0,0-5.462-12c-.115-.2.155-.4.291-.21a35.76,35.76,0,0,1,3.211,6.388C51.42,58.957,52.258,60.782,53.022,62.628Z" transform="translate(-15.249 -16.418)" fill="#e8cee5"/>
      <path id="Path_266" data-name="Path 266" d="M37.056,64.49c-1.447,1.027-3.055,2.028-4.664,2.981-.764.466-1.494.933-2.183,1.393-.676-.4-1.257-.791-1.8-1.176A23.954,23.954,0,0,1,37.056,64.49Z" transform="translate(-9.206 -20.896)" fill="#826b80"/>
      <path id="Path_267" data-name="Path 267" d="M42.282,42.144a23.91,23.91,0,0,1-10.721,2.312H31.48a2.454,2.454,0,0,0-.081-.277c-.419-1.251-2.028-6.395-3.319-10.937a25.711,25.711,0,0,0,.629-7.179c.615-.21,1.244-.392,1.744-.521.041,1.217.365,4.252,2.7,4.333,2.758.095,3.3-3.819,3.38-5.516a12.783,12.783,0,0,1,1.474-.128h.6a10.762,10.762,0,0,0,.115,3.434,10.282,10.282,0,0,0,2.6,5.063c.034.737.243,2.812.446,4.827S42.282,42.144,42.282,42.144Z" transform="translate(-9.099 -7.851)" fill="#3b2645"/>
      <path id="Path_268" data-name="Path 268" d="M46.444,34.363c.034.717.243,2.792.446,4.806a16.44,16.44,0,0,1-3.042-9.89,10.282,10.282,0,0,0,2.6,5.063Z" transform="translate(-14.207 -9.488)" fill="#291b30"/>
      <path id="Path_269" data-name="Path 269" d="M12.488,42.6c-.27.973-.757,1.852-1.048,2.805-.149.493.554.676.845.385A7.186,7.186,0,0,0,13.637,42.8C13.84,42.045,12.684,41.883,12.488,42.6Z" transform="translate(-3.701 -13.654)" fill="#ab8da8"/>
      <path id="Path_270" data-name="Path 270" d="M30.527,21.556c.155.23.338.439.507.676a1.947,1.947,0,0,1,.183.23c1.048,1.467,1.23,3.157,1.751,4.779.061-.095.128-.189.189-.291-.155-.635-.284-1.271-.453-1.893a5.915,5.915,0,0,1,1.169-2.7,11.046,11.046,0,0,0,1.3-1.514,4.522,4.522,0,0,0,.527-1.879,5.827,5.827,0,0,1,.338-1.906.507.507,0,0,0,.054-.162.439.439,0,0,0-.176-.365.25.25,0,0,0-.155-.068.142.142,0,0,0-.142.074.291.291,0,0,0,0,.108,6.578,6.578,0,0,1-.068,1.21c-.047.426-.068.852-.115,1.278a4.313,4.313,0,0,1-1.284,2.582,5.063,5.063,0,0,0-1.514,2.961A8.673,8.673,0,0,0,31.961,23c-.406-.71-.96-1.3-1.406-1.974a4.631,4.631,0,0,1-.635-1.548A2.819,2.819,0,0,1,29.8,18.7c0-.264.122-.784-.041-1.007-.257-.345-.358.054-.318.3.081.521.074,1.055.183,1.575a5.306,5.306,0,0,0,.784,1.758,2.339,2.339,0,0,0,.115.237Z" transform="translate(-9.539 -5.333)" fill="#ab8da8"/>
      <path id="Path_271" data-name="Path 271" d="M37.369,39.255a3,3,0,0,0-.338,1.96,10.538,10.538,0,0,1,.095,1.528,1.514,1.514,0,0,1-.561,1.149,1.163,1.163,0,0,1-.433.1.926.926,0,0,1-.385,0,1.061,1.061,0,0,1-.46-.372,2.715,2.715,0,0,1-.419-1.872,2.244,2.244,0,0,0-.737-1.636c-1.271-1.352-.608-2.454-.223-3.948a10.062,10.062,0,0,0-.155-6.246h0a28.148,28.148,0,0,1,.3,3.61,16.852,16.852,0,0,1-.8,3.88,2.859,2.859,0,0,0,0,2.19,3.062,3.062,0,0,0,.561.676,2.958,2.958,0,0,1,.771,2.3c.054.946,1.136,2.271,2.231,1.46a1.812,1.812,0,0,0,.581-1.534c0-.493-.108-.987-.128-1.48a3.968,3.968,0,0,1,.054-1.264.6.6,0,0,1,.108-.23.771.771,0,0,1,.4-.216.676.676,0,0,1,.25-.034.473.473,0,0,1,.264.176,2.643,2.643,0,0,1,.46.757c0,.061.047.2.128.216s.176-.034.155-.122C38.924,39.587,38.18,38.322,37.369,39.255Z" transform="translate(-10.702 -9.695)" fill="#ab8da8"/>
      <rect id="Rectangle_10" data-name="Rectangle 10" width="3.224" height="5.834" rx="1.08" transform="translate(27.126 30.978) rotate(-26.03)" fill="#e8cee5"/>
      <path id="Path_272" data-name="Path 272" d="M45.821,24.993a.676.676,0,0,1,.615.176c1.352,1.3,8,7.841,8.592,10.694.615,2.974-8.416,5.266-9.585,5.55a.4.4,0,0,0-.2.122c-.345.406-1.8,1.96-2.907.987-1.217-1.061-2.028-3.218,1.257-3.61,2.028-.243,6.76-3.177,6.76-3.177l-5.685-4.367S42.82,25.669,45.821,24.993Z" transform="translate(-13.375 -8.093)" fill="#f5a784"/>
      <path id="Path_273" data-name="Path 273" d="M50.986,78.427c-2.7-.155-5.469,0-8.186,0s-5.469-.1-8.179.088a.061.061,0,0,0,0,.122c2.7.189,5.462.074,8.179.081s5.475.149,8.186,0a.145.145,0,0,0,0-.291Z" transform="translate(-11.199 -25.39)" fill="#e8cee5"/>
      <path id="Path_274" data-name="Path 274" d="M79.124,62.191c-3.008-.155-6.043-.047-9.051-.041s-6.084-.189-9.045.081a.108.108,0,0,0,0,.216c2.981.27,6.084.074,9.045.081s6.043.115,9.051-.041a.149.149,0,1,0,0-.3Z" transform="translate(-19.74 -20.118)" fill="#e8cee5"/>
      <path id="Path_275" data-name="Path 275" d="M13.7,56.436c-2.028-.115-4.117,0-6.165,0a55.134,55.134,0,0,0-6.165.095.061.061,0,1,0,0,.122,55.159,55.159,0,0,0,6.165.1c2.028,0,4.123.095,6.165,0a.159.159,0,1,0,0-.318Z" transform="translate(-0.425 -18.27)" fill="#e8cee5"/>
      <path id="Path_276" data-name="Path 276" d="M19.541,58.647a31.913,31.913,0,0,0-6.577.081.034.034,0,1,0,0,.068,31.913,31.913,0,0,0,6.577.081.115.115,0,1,0,0-.23Z" transform="translate(-4.19 -18.96)" fill="#e8cee5"/>
      <path id="Path_277" data-name="Path 277" d="M67.808,18.38c-2.853-.155-5.732-.047-8.585-.041s-5.746-.095-8.592.108a.081.081,0,0,0,0,.162c2.853.2,5.739.1,8.592.108s5.732.115,8.585-.041a.149.149,0,1,0,0-.3Z" transform="translate(-16.38 -5.929)" fill="#e8cee5"/>
    </g>
  </g>
</svg>
