<svg xmlns="http://www.w3.org/2000/svg" width="54.6" height="54.6" viewBox="0 0 54.6 54.6">
  <g id="Layer_5" data-name="Layer 5" transform="translate(0.01 0.01)">
    <g id="Design">
      <path id="Path_285" data-name="Path 285" d="M27.29,54.59a27.3,27.3,0,1,1,27.3-27.3,27.3,27.3,0,0,1-27.3,27.3Zm0-51.66A24.36,24.36,0,1,0,51.65,27.29,24.36,24.36,0,0,0,27.29,2.93Z" fill="#3cf"/>
      <path id="Path_286" data-name="Path 286" d="M43,17.33a12.82,12.82,0,0,1-3.21.92c.51-.09,1.28-1,1.58-1.4a5.91,5.91,0,0,0,1.07-2v-.17a.2.2,0,0,0-.17,0,16.16,16.16,0,0,1-3.81,1.47.28.28,0,0,1-.27-.07,2.77,2.77,0,0,0-.33-.35A7,7,0,0,0,36,14.66a6.52,6.52,0,0,0-2.83-.46,7,7,0,0,0-2.69.76,7.08,7.08,0,0,0-2.18,1.78A6.65,6.65,0,0,0,27,19.33a7,7,0,0,0-.07,2.74c0,.16,0,.18-.13.16-5.24-.78-9.59-2.66-13.12-6.68-.15-.17-.23-.17-.36,0-1.54,2.31-.79,6,1.13,7.85.26.25.53.49.81.71a6.55,6.55,0,0,1-2.53-.71c-.15-.09-.23,0-.24.14a3.2,3.2,0,0,0,0,.75,6.73,6.73,0,0,0,4.14,5.36,4.29,4.29,0,0,0,.84.26A7.4,7.4,0,0,1,15,30c-.18,0-.25.06-.18.23a7,7,0,0,0,5.22,4.37,1.772,1.772,0,0,1,.71.1H20.7c-.58.89-2.61,1.56-3.56,1.89a12.76,12.76,0,0,1-5.41.69H11.3c-.08,0,0,.12.08.19.37.25.75.46,1.13.67a18.25,18.25,0,0,0,3.62,1.45c6.5,1.79,13.82.47,18.7-4.37C38.68,31.45,40,26.2,40,20.94c0-.2.24-.32.39-.43a12.67,12.67,0,0,0,2.53-2.64.78.78,0,0,0,.16-.51h0C43.1,17.25,43.11,17.27,43,17.33Z" fill="#3cf"/>
      <path id="Path_287" data-name="Path 287" d="M20.73,40.28Z" fill="#fff" fill-rule="evenodd"/>
      <path id="Path_288" data-name="Path 288" d="M20.73,40.28Z" fill="#fff" fill-rule="evenodd"/>
      <path id="Path_289" data-name="Path 289" d="M21.8,40.31c0-.05.57,0,0,0C21.8,40.28,21.87,40.31,21.8,40.31Z" fill="#fff" fill-rule="evenodd"/>
      <path id="Path_290" data-name="Path 290" d="M33.06,14.23a.12.12,0,0,1-.14,0Z" fill="#fff" fill-rule="evenodd"/>
    </g>
  </g>
</svg>
