<svg xmlns="http://www.w3.org/2000/svg" width="54.6" height="54.6" viewBox="0 0 54.6 54.6">
  <g id="Layer_8" data-name="Layer 8" transform="translate(0.01 0.01)">
    <g id="Design">
      <path id="Path_278" data-name="Path 278" d="M27.29,54.59a27.3,27.3,0,1,1,27.3-27.3,27.3,27.3,0,0,1-27.3,27.3Zm0-51.66A24.36,24.36,0,1,0,51.65,27.29,24.36,24.36,0,0,0,27.29,2.93Z" fill="#3c5a99"/>
      <path id="Path_279" data-name="Path 279" d="M23,27.42V43.24a.41.41,0,0,0,.41.41H29.3a.41.41,0,0,0,.41-.41V27.16H34a.41.41,0,0,0,.41-.37l.41-4.85a.41.41,0,0,0-.41-.44h-4.7V18.06a1.46,1.46,0,0,1,1.46-1.46h3.28a.41.41,0,0,0,.41-.41V11.35a.41.41,0,0,0-.41-.42H28.91a5.9,5.9,0,0,0-5.9,5.9V21.5H20.08a.41.41,0,0,0-.42.41v4.84a.41.41,0,0,0,.42.41H23Z" fill="#3c5a99" fill-rule="evenodd"/>
    </g>
  </g>
</svg>
