<svg xmlns="http://www.w3.org/2000/svg" width="80" height="60" viewBox="0 0 80 60">
  <g id="Layer_2" data-name="Layer 2" transform="translate(-0.046 0.003)">
    <g id="Layer_1" data-name="Layer 1" transform="translate(0.046 -0.003)">
      <path id="Path_155" data-name="Path 155" d="M.517,52.873A6.3,6.3,0,0,1,.09,49.73,14.428,14.428,0,0,1,1.5,46.777C3.023,43.494,1.22,39.761.709,36.2A15.637,15.637,0,0,1,6.63,21.784,15.928,15.928,0,0,1,22.2,19.872c3.889,1.669,7.068,4.908,11.2,5.858,2.645.609,5.41.213,8.12.128A24.288,24.288,0,0,1,53.05,28.1a15.141,15.141,0,0,1,7.766,8.526c1.01,3.045.847,6.364,2.068,9.305C64.728,50.376,69.248,53,73.2,55.79,75.722,57.574,78.336,60,78.24,63.1c-.072,2.527-2.08,4.464-4.3,5.414-2.819,1.218-5.506.737-8.493.78l-29.266.42a7.842,7.842,0,0,1-3.005-.347A10.789,10.789,0,0,1,31.2,68.176a11.39,11.39,0,0,0-5.656-1.705c-2.26-.219-4.424-1-6.726-1.133-3.847-.225-8.679-.518-12.021-2.521C3.234,60.674,1.689,56.557.517,52.873Z" transform="translate(-0.046 -10.491)" fill="#f6f6f6"/>
      <path id="Path_156" data-name="Path 156" d="M80.221,101.758c-.655-.073-1.316-.128-1.984-.158H3.041l-.866.079a.612.612,0,0,0,0,1.157c.289.037.6.061.866.085h75.2c.667-.037,1.322-.085,1.978-.158a.5.5,0,0,0,0-1Z" transform="translate(-0.717 -42.921)" fill="#c6c6c6"/>
      <path id="Path_157" data-name="Path 157" d="M39.595,52.816c-1.1,3.2-4.531,8.124-4.531,8.124L23.292,56.068a35.463,35.463,0,0,1-.451-3.593.609.609,0,0,1,.037-.177c.043-.1.085-.189.122-.28.2-.432.4-.84.56-1.133s.262-.481.262-.481a2.436,2.436,0,0,0-1.145-1,4.665,4.665,0,0,0-2.119-.426h-.164c-.993-.061-.609-.767.079-1.522a18.178,18.178,0,0,1,2.156-1.894l3.045,1.961c.171.085.469-.128.78-.5a6.7,6.7,0,0,0,.828-1.279,5.542,5.542,0,0,0,.359-.926c.1-.365,1.644.609,3.593,2.04s4.464,3.325,6.224,4.592a14.525,14.525,0,0,0,2.138,1.364Z" transform="translate(-7.766 -19.347)" fill="#f5a784"/>
      <path id="Path_158" data-name="Path 158" d="M91.631,85.545c-.28,1.675-3.142-.14-3.818-.548a6.583,6.583,0,0,0-1.218-.56c-.079,0-.92-.384-.98-.3a13.554,13.554,0,0,1-2.284-.566A73.571,73.571,0,0,1,73.775,80.4a51.959,51.959,0,0,0-11.686-3.764l-1.3-.225c-3.258-.658-9.226-2.217-12.241-4.537a30.309,30.309,0,0,1-4.068-3.782A16.255,16.255,0,0,1,43.32,66.66a2.984,2.984,0,0,0,1.267-.913,9.427,9.427,0,0,0,1.827-3.258l.061-.158.53.195c1.492.554,5.639,2.217,5.755,3.6h0c.548.219,11.108,4.945,11.138,4.957,2.113.98,21.619,10.852,21.96,11.035a32.812,32.812,0,0,0,3.55,1.37C90.1,83.766,91.807,84.5,91.631,85.545Z" transform="translate(-17.998 -27.566)" fill="#f5a784"/>
      <path id="Path_159" data-name="Path 159" d="M36.436,5.48A5.791,5.791,0,0,1,36.2,3.306a7.057,7.057,0,0,0-.3-2.947,1.218,1.218,0,0,0-.225-.177H35.6A1.413,1.413,0,0,0,35.09,0h-.055a1.455,1.455,0,0,0-.493.061H34.5a1.906,1.906,0,0,0-.432.195,10.542,10.542,0,0,1,0,2.284s-.365-1-.694-1.054l-.213.091s.268,1.121.347,1.632a3.709,3.709,0,0,0,1.145,2.071S36.059,6.278,36.436,5.48Z" transform="translate(-13.261 0.003)" fill="#f5a784"/>
      <path id="Path_160" data-name="Path 160" d="M35.4.1H35.36a17.088,17.088,0,0,1,.171,2.308h0A5.6,5.6,0,0,0,35.4.1Z" transform="translate(-14.129 -0.037)" fill="#e0855c"/>
      <path id="Path_161" data-name="Path 161" d="M36.295,0H36.24a18.27,18.27,0,0,1,.177,2.314h0A5.578,5.578,0,0,0,36.295,0Z" transform="translate(-14.48 0.002)" fill="#e0855c"/>
      <path id="Path_162" data-name="Path 162" d="M37.237.3H37.17a18.471,18.471,0,0,1,.152,2.186h0A5.055,5.055,0,0,0,37.237.3Z" transform="translate(-14.85 -0.116)" fill="#e0855c"/>
      <path id="Path_163" data-name="Path 163" d="M34.178,34.465s-3.489,1.078-2.576-2.18c1.175-4.19,2.868-10.876,3.045-13.5s-.731-11.26-.731-11.26l1.638-.213s1.857,8.477,1.876,11.808S36.827,33.618,34.178,34.465Z" transform="translate(-12.588 -2.857)" fill="#f5a784"/>
      <path id="Path_164" data-name="Path 164" d="M25.217,47.659a3.563,3.563,0,0,1-2.436,2.253,4.665,4.665,0,0,0-2.119-.426H20.5L20.12,49.3a13.143,13.143,0,0,1,.457-1.334,18.179,18.179,0,0,1,2.156-1.894Z" transform="translate(-8.061 -19.523)" fill="#e0855c"/>
      <path id="Path_165" data-name="Path 165" d="M18.307,44.97a8.526,8.526,0,0,1-.432,1.011A5.932,5.932,0,0,0,17,48.307c-.061,1.145.658,2.308.268,3.38-.189.524-.609.932-.846,1.437v.061a4.364,4.364,0,0,0,.079,2.479,2.785,2.785,0,0,1-.335,2.4,2.144,2.144,0,0,1-1.3.609,2.536,2.536,0,0,1-2.771-1.315c-.579-1.449.755-3.258-.055-4.6-.28-.457-.755-.749-1.072-1.175-1.431-1.906.67-3.831.554-5.785-.055-.786-.481-1.516-.481-2.308a5.207,5.207,0,0,1,2.351-3.8,3.7,3.7,0,0,1,3.654,0,3.142,3.142,0,0,1,1.37,1.529,5.4,5.4,0,0,1-.11,3.751Z" transform="translate(-4.121 -17.075)" fill="#3b2645"/>
      <path id="Path_166" data-name="Path 166" d="M19.967,51.685c-.061,1.145.658,2.308.268,3.38-.189.524-.609.932-.846,1.437a2.229,2.229,0,0,1-.371-1.535c.055-.365.2-.713.256-1.078a3.429,3.429,0,0,0-.566-2.168c-.244-.4-.786-1.1-.609-1.608s.883-.055.968-.688a3.355,3.355,0,0,0,0-.493,1.047,1.047,0,0,1,.25-.743,1.151,1.151,0,0,1,.956-.335,1.711,1.711,0,0,1,1.017.493,8.526,8.526,0,0,1-.432,1.011,5.931,5.931,0,0,0-.889,2.326Z" transform="translate(-7.091 -20.415)" fill="#2c1c33"/>
      <path id="Path_167" data-name="Path 167" d="M19.933,41.621A4.732,4.732,0,0,0,17.7,40.86c-2.436.238-3.654,3.155-2.7,4.507a5.426,5.426,0,0,0,1.961,1.413.609.609,0,0,0-.317.816c.231.481,1.3.274,1.949-.171a3.319,3.319,0,0,0,3.757-1.687C22.85,44.879,22.613,43.052,19.933,41.621Z" transform="translate(-5.766 -17.391)" fill="#f5a784"/>
      <path id="Path_168" data-name="Path 168" d="M22.026,43.972s.213-.183-.207-.378-.426,0-.426,0-.091.158.238.317S22.026,43.972,22.026,43.972Z" transform="translate(-8.388 -18.361)" fill="#3b2645"/>
      <path id="Path_169" data-name="Path 169" d="M20.076,47.562s.213-.183-.207-.378-.426,0-.426,0-.091.158.238.317S20.076,47.562,20.076,47.562Z" transform="translate(-7.626 -19.876)" fill="#3b2645"/>
      <path id="Path_170" data-name="Path 170" d="M22.037,46.351c.049-.128.268-.353.177-.475a3.849,3.849,0,0,0-.913-.311l-.371-.091v-.049a.353.353,0,0,1,0-.085c.481.134.962.311,1.419.438a.067.067,0,0,1,.043.091c-.1.171-.158.353-.256.524C22.116,46.467,22.012,46.43,22.037,46.351Z" transform="translate(-8.21 -19.148)" fill="#e0855c"/>
      <path id="Path_171" data-name="Path 171" d="M20.19,43.168c0-.207.164-.524.4-.548a.055.055,0,0,1,.049.085c-.049.079-.128.128-.183.207a.749.749,0,0,0-.1.274C20.33,43.278,20.184,43.259,20.19,43.168Z" transform="translate(-7.922 -17.989)" fill="#3b2645"/>
      <path id="Path_172" data-name="Path 172" d="M18.438,46.981c-.177-.225.037-.646.28-.731.055,0,.1.037.091.085a2,2,0,0,1-.177.317.974.974,0,0,0-.067.292.079.079,0,0,1-.128.037Z" transform="translate(-7.212 -19.524)" fill="#3b2645"/>
      <path id="Path_173" data-name="Path 173" d="M23.5,47.536a1.291,1.291,0,0,0,.445-.365c.091-.14.116-.341.244-.451a.043.043,0,0,1,.067,0c.1.195-.049.481-.158.646a.719.719,0,0,1-.548.353.1.1,0,0,1-.049-.183Z" transform="translate(-9.2 -19.722)" fill="#e0855c"/>
      <path id="Path_174" data-name="Path 174" d="M13.967,45.587a4.575,4.575,0,0,0,2,1.437c1.638.3-.085-2.186-.225-2.625s-.134-.846-.238-1.267c-.055-.231-.451-.694-.42-.889s.463-.445.609-.609c.329-.493.725-.664,1.157-.408s.731-.609,1.157-.463-.67-.384-.67-.384l-2.052.359L14.071,42.28l-.311,1.87Z" transform="translate(-5.408 -17.178)" fill="#3b2645"/>
      <path id="Path_175" data-name="Path 175" d="M23.446,59.762a64.022,64.022,0,0,1-.767,9.945,70.473,70.473,0,0,1-2.064,7.454c-.871,2.71-1.669,5.012-1.669,5.012l-.1.371a.913.913,0,0,1-.883.706l-4.494-.073a.231.231,0,0,1-.116-.432c.9-.609,3.155-.95,3.4-1.133a2.387,2.387,0,0,0,.371-.731s2.552-8.654,2.783-11.278-.773-9.1-.286-12.448a7.624,7.624,0,0,1,.268-1.181,3.234,3.234,0,0,1,.968-1.541,1.583,1.583,0,0,1,1.1-.384,2.247,2.247,0,0,1,.944,1.334,15.383,15.383,0,0,1,.542,4.379Z" transform="translate(-5.204 -24.328)" fill="#f5a784"/>
      <path id="Path_176" data-name="Path 176" d="M39.147,52.051a41.569,41.569,0,0,1-3.556,6.65l-.164.244-.353.518q-.11.164-.219.311c-.177.256-.365.512-.554.761l-6.547-2.716a4.756,4.756,0,0,0-.938-2.436,9.829,9.829,0,0,0-2.655-2.466,3.234,3.234,0,0,1,.968-1.541l.14.091a6.09,6.09,0,0,0,1.9.859,2.826,2.826,0,0,0,2.625-.572c1.486-1.291-.371-3.136-1.65-4.153a6.7,6.7,0,0,0,.828-1.279,10.962,10.962,0,0,0,3.952,1.114C34.939,48.9,37.387,50.784,39.147,52.051Z" transform="translate(-9.704 -19.951)" fill="#ff4590"/>
      <path id="Path_177" data-name="Path 177" d="M94.14,81.44c-.664.828-2.351.043-3.045-.3a33.432,33.432,0,0,0-3.337-1.669l-1.151-.426c-2.375-.9-4.732-1.864-7.125-2.728L46.7,63.353a11.571,11.571,0,0,0,1.06-2.582,6.912,6.912,0,0,0,.207-1.114A3.045,3.045,0,0,0,47.8,58.1a18.312,18.312,0,0,1,2.016-.1,31.058,31.058,0,0,1,5.353.5C59.154,59.218,64.7,63,67.2,64.93l.609.457a51.657,51.657,0,0,0,10.609,6.187A74.571,74.571,0,0,1,87.484,76.8c1,.664,1.6,1.1,1.6,1.1s.8.481.883.53a6.827,6.827,0,0,0,1.218.536C91.948,79.192,95.194,80.112,94.14,81.44Z" transform="translate(-19.319 -25.873)" fill="#f5a784"/>
      <path id="Path_178" data-name="Path 178" d="M67.881,64.93c-.682,1.6-1.37,3.094-2.052,4.4-.183.365-.365.719-.542,1.054-2.5-1.066-13.416-5.292-16.857-6.626a19.725,19.725,0,0,0,1.334-2.667A21.856,21.856,0,0,0,50.781,58a31.466,31.466,0,0,1,5.067.5C59.83,59.218,65.372,63,67.881,64.93Z" transform="translate(-19.458 -24.899)" fill="#3b2645"/>
      <path id="Path_179" data-name="Path 179" d="M64.562,71.32C62.126,70.193,53.5,66.393,53.5,66.393c-.1-1.218-3.209-2.6-5.018-3.313a19.726,19.726,0,0,1-1.334,2.667A13.1,13.1,0,0,1,45.19,68.36a30.309,30.309,0,0,0,4.086,3.806c3.045,2.345,8.983,3.9,12.259,4.561.652-1.029,1.449-2.357,2.308-3.971-3.885-2.32-9.847-6.072-10.3-6.346C54.087,66.643,62.2,70.229,64.562,71.32Z" transform="translate(-18.158 -27.142)" fill="#3b2645"/>
      <path id="Path_180" data-name="Path 180" d="M97.044,86.878c-2.1-1.084-4.263-2.119-6.315-3.234s-14.147-7.016-14.2-7.034c-.183.365-.365.719-.542,1.054l-.195.359c.962.566,1.827,1.041,2.393,1.358C81.253,81,96.569,86.7,97.044,86.878Z" transform="translate(-30.459 -33.15)" fill="#e0855c"/>
      <path id="Path_181" data-name="Path 181" d="M69.915,73.458c-2.381-1.09-10.493-4.677-11.035-4.908.451.286,6.413,4.025,10.3,6.321l.195-.359A11.417,11.417,0,0,0,69.915,73.458Z" transform="translate(-23.579 -29.148)" fill="#291b30"/>
      <path id="Path_182" data-name="Path 182" d="M54.889,67.642c-1.431.043-2.637-.913-3.928-1.376-.1-.043-.189.116-.1.183a8.4,8.4,0,0,0,2.217,1.169,2.881,2.881,0,0,0,1.864.341.164.164,0,0,0-.049-.317Z" transform="translate(-20.315 -28.005)" fill="#291b30"/>
      <path id="Path_183" data-name="Path 183" d="M35.36,59.634a.134.134,0,0,0-.268,0,3.824,3.824,0,0,1-.572,1.48,2.022,2.022,0,0,1-1.321.731c-.231,0-.231.39,0,.371A2.436,2.436,0,0,0,35.36,59.634Z" transform="translate(-13.204 -25.179)" fill="#de3c7c"/>
      <path id="Path_184" data-name="Path 184" d="M40.339,51.918a.195.195,0,0,0-.378.061,2,2,0,0,1-.3,1.376c-.292.445-.694.542-1.1.828a.158.158,0,0,0,.128.28,2.144,2.144,0,0,0,1.65-2.546Z" transform="translate(-15.387 -21.915)" fill="#de3c7c"/>
      <path id="Path_185" data-name="Path 185" d="M117.32,97.9c-.28,1.675-3.142-.14-3.818-.548a6.583,6.583,0,0,0-1.218-.56c-.079,0-.92-.384-.98-.3a13.554,13.554,0,0,1-2.284-.566,9.89,9.89,0,0,0,1.06-1.157,8.3,8.3,0,0,0,.505-.84l1.029.542a32.811,32.811,0,0,0,3.483,1.376C115.786,96.118,117.5,96.855,117.32,97.9Z" transform="translate(-43.687 -39.919)" fill="#ff4590"/>
      <path id="Path_186" data-name="Path 186" d="M119.763,93.51c-.664.828-2.351.043-3.045-.3a33.435,33.435,0,0,0-3.337-1.669l-1.151-.426a21.807,21.807,0,0,0,.853-2.247c1,.664,1.6,1.1,1.6,1.1s.8.481.883.53a6.827,6.827,0,0,0,1.218.536C117.571,91.263,120.817,92.183,119.763,93.51Z" transform="translate(-44.943 -37.944)" fill="#ff4590"/>
      <path id="Path_187" data-name="Path 187" d="M31.809,64.61l-2.351-.974A4.689,4.689,0,0,0,28.52,61.2a9.6,9.6,0,0,1,3.289,3.41Z" transform="translate(-11.41 -25.921)" fill="#de3c7c"/>
      <path id="Path_188" data-name="Path 188" d="M27.249,22.314c-.512-1.754-1.273-3.441-1.87-5.164-.505-1.449-.828-3.2-1.827-4.421-.061-.079-.225-.067-.213.061a.383.383,0,0,0,.158.335.358.358,0,0,0,.177.311,7.533,7.533,0,0,1,.359.889c.11.317.207.609.3.956q.39,1.273.822,2.521a32.811,32.811,0,0,0,1.827,4.628C27.06,22.582,27.3,22.466,27.249,22.314Z" transform="translate(-9.343 -4.956)" fill="#e8cee5"/>
      <path id="Path_189" data-name="Path 189" d="M62.249,14.394A54.865,54.865,0,0,0,57,19.1c-1.79,1.687-3.6,3.38-5.256,5.207a.14.14,0,0,0,.152.189c1.784-1.608,3.477-3.319,5.225-4.963s3.654-3.173,5.243-4.939C62.48,14.492,62.346,14.3,62.249,14.394Z" transform="translate(-20.718 -5.617)" fill="#e8cee5"/>
      <path id="Path_190" data-name="Path 190" d="M66.914,30.238a27.4,27.4,0,0,0-4.464,2c-1.553.773-3.155,1.516-4.622,2.436-.134.079-.043.317.11.256,1.51-.609,2.96-1.395,4.421-2.1a33.781,33.781,0,0,0,4.647-2.387.116.116,0,0,0-.091-.207Z" transform="translate(-23.119 -12.827)" fill="#e8cee5"/>
      <path id="Path_191" data-name="Path 191" d="M71.356,44.2a25.577,25.577,0,0,0-7.308-.317.128.128,0,1,0,0,.256c2.436.219,4.872.341,7.271.554a.25.25,0,0,0,.037-.493Z" transform="translate(-25.568 -18.477)" fill="#e8cee5"/>
    </g>
  </g>
</svg>
