<svg xmlns="http://www.w3.org/2000/svg" width="54.6" height="54.6" viewBox="0 0 54.6 54.6">
  <g id="Layer_6" data-name="Layer 6" transform="translate(0.01 0.01)">
    <g id="Design">
      <path id="Path_283" data-name="Path 283" d="M27.29,54.59a27.3,27.3,0,1,1,27.3-27.3,27.3,27.3,0,0,1-27.3,27.3Zm0-51.66A24.36,24.36,0,1,0,51.65,27.29,24.36,24.36,0,0,0,27.29,2.93Z" fill="red"/>
      <path id="Path_284" data-name="Path 284" d="M43.63,23.15a7,7,0,0,0-7-7H18.45a7,7,0,0,0-7,7v8.52a7,7,0,0,0,7,7H36.63a7,7,0,0,0,7-7ZM32.16,27.84l-7.25,4c-.31.17-.59-.06-.59-.42V23.24c0-.36.29-.59.6-.41L32.22,27a.47.47,0,0,1-.06.84Z" fill="red"/>
    </g>
  </g>
</svg>
