<svg xmlns="http://www.w3.org/2000/svg" xmlns:xlink="http://www.w3.org/1999/xlink" width="706.864" height="709.232" viewBox="0 0 706.864 709.232">
  <defs>
    <linearGradient id="linear-gradient" x1="1.129" y1="1.296" x2="0.237" y2="0.19" gradientUnits="objectBoundingBox">
      <stop offset="0" stop-color="#dae3fe"/>
      <stop offset="1" stop-color="#e9effd"/>
    </linearGradient>
    <linearGradient id="linear-gradient-2" y1="0.5" x2="1" y2="0.5" gradientUnits="objectBoundingBox">
      <stop offset="0" stop-color="#09005d"/>
      <stop offset="1" stop-color="#1a0f91"/>
    </linearGradient>
    <linearGradient id="linear-gradient-3" x1="-0.146" y1="0.768" x2="0.682" y2="-0.228" xlink:href="#linear-gradient-2"/>
    <linearGradient id="linear-gradient-4" x1="-0.578" y1="1.132" x2="0.486" y2="-0.556" xlink:href="#linear-gradient-2"/>
    <linearGradient id="linear-gradient-5" x1="-0.014" y1="0.243" x2="-0.391" y2="0.94" xlink:href="#linear-gradient-2"/>
    <linearGradient id="linear-gradient-6" x1="-1.374" y1="-0.978" x2="-2.458" y2="1.606" xlink:href="#linear-gradient-2"/>
    <linearGradient id="linear-gradient-7" x1="-1.58" y1="-2.017" x2="-0.812" y2="-3.027" gradientUnits="objectBoundingBox">
      <stop offset="0" stop-color="#4f52ff"/>
      <stop offset="1" stop-color="#4042e2"/>
    </linearGradient>
    <linearGradient id="linear-gradient-8" x1="-1.869" y1="0.821" x2="-1.296" y2="-0.643" xlink:href="#linear-gradient-2"/>
    <linearGradient id="linear-gradient-9" x1="-1.669" y1="0.948" x2="-1.142" y2="-0.584" xlink:href="#linear-gradient-2"/>
    <linearGradient id="linear-gradient-10" x1="-2.088" y1="0.379" x2="-1.235" y2="0.379" xlink:href="#linear-gradient-2"/>
    <linearGradient id="linear-gradient-11" x1="1.718" y1="-1.234" x2="1.247" y2="-0.566" xlink:href="#linear-gradient-7"/>
    <linearGradient id="linear-gradient-12" x1="-80.011" y1="-49.989" x2="-81.251" y2="-48.509" gradientUnits="objectBoundingBox">
      <stop offset="0" stop-color="#ff928e"/>
      <stop offset="1" stop-color="#fe7062"/>
    </linearGradient>
    <linearGradient id="linear-gradient-13" x1="-77.309" y1="-48.758" x2="-78.551" y2="-47.28" xlink:href="#linear-gradient-12"/>
    <linearGradient id="linear-gradient-14" x1="-138.639" y1="0.473" x2="-138.766" y2="1.141" gradientUnits="objectBoundingBox">
      <stop offset="0" stop-color="#febbba"/>
      <stop offset="1" stop-color="#ff928e"/>
    </linearGradient>
    <linearGradient id="linear-gradient-15" x1="6.521" y1="2.128" x2="3.499" y2="1.302" xlink:href="#linear-gradient-7"/>
    <linearGradient id="linear-gradient-16" x1="1.141" y1="-0.03" x2="-3.513" y2="3.816" xlink:href="#linear-gradient-7"/>
    <linearGradient id="linear-gradient-17" x1="-65.906" y1="0.52" x2="-66.005" y2="1.252" xlink:href="#linear-gradient-14"/>
    <linearGradient id="linear-gradient-18" x1="-7.075" y1="0.5" x2="-6.075" y2="0.5" xlink:href="#linear-gradient-2"/>
    <linearGradient id="linear-gradient-19" x1="-102.668" y1="-0.266" x2="-102.971" y2="1.273" xlink:href="#linear-gradient-14"/>
    <linearGradient id="linear-gradient-20" x1="1.264" y1="-0.321" x2="0.489" y2="0.658" xlink:href="#linear-gradient-14"/>
    <linearGradient id="linear-gradient-21" x1="-16.518" y1="0.5" x2="-15.518" y2="0.5" xlink:href="#linear-gradient-14"/>
    <linearGradient id="linear-gradient-22" x1="-9.631" y1="0.5" x2="-8.631" y2="0.5" xlink:href="#linear-gradient-14"/>
    <linearGradient id="linear-gradient-23" x1="-20.305" y1="0.5" x2="-19.305" y2="0.5" xlink:href="#linear-gradient-2"/>
    <linearGradient id="linear-gradient-24" x1="2.462" y1="2.101" x2="0.878" y2="0.89" xlink:href="#linear-gradient-12"/>
    <linearGradient id="linear-gradient-25" x1="-15.121" y1="0.5" x2="-14.121" y2="0.5" xlink:href="#linear-gradient-2"/>
    <linearGradient id="linear-gradient-26" x1="-74.807" y1="-6.651" x2="-77.658" y2="-2.544" xlink:href="#linear-gradient-14"/>
    <linearGradient id="linear-gradient-27" x1="-71.781" y1="-13.375" x2="-73.124" y2="-12.052" xlink:href="#linear-gradient-14"/>
    <linearGradient id="linear-gradient-28" x1="-51.03" y1="-8.115" x2="-49.904" y2="-8.115" xlink:href="#linear-gradient-2"/>
    <linearGradient id="linear-gradient-29" x1="-200.368" y1="-38.886" x2="-197.477" y2="-41.373" xlink:href="#linear-gradient-14"/>
    <linearGradient id="linear-gradient-30" x1="0.571" y1="0.211" x2="0.273" y2="1.423" xlink:href="#linear-gradient-14"/>
    <linearGradient id="linear-gradient-31" x1="1.468" y1="0.721" x2="3.101" y2="1.121" xlink:href="#linear-gradient-7"/>
    <linearGradient id="linear-gradient-32" x1="3.004" y1="1.31" x2="1.501" y2="0.824" xlink:href="#linear-gradient-7"/>
    <linearGradient id="linear-gradient-33" x1="-37.462" y1="0.548" x2="-37.502" y2="1.517" xlink:href="#linear-gradient-2"/>
    <linearGradient id="linear-gradient-34" x1="-68.613" y1="0.535" x2="-68.668" y2="1.288" xlink:href="#linear-gradient-14"/>
    <linearGradient id="linear-gradient-35" x1="4.341" y1="0.985" x2="18.548" y2="2.759" xlink:href="#linear-gradient-7"/>
    <linearGradient id="linear-gradient-36" x1="0.304" y1="6.89" x2="-0.171" y2="21.615" xlink:href="#linear-gradient-7"/>
    <linearGradient id="linear-gradient-37" x1="-565.785" y1="0.5" x2="-564.784" y2="0.5" xlink:href="#linear-gradient-7"/>
    <linearGradient id="linear-gradient-38" x1="-555.059" y1="0.5" x2="-554.059" y2="0.5" xlink:href="#linear-gradient-7"/>
    <linearGradient id="linear-gradient-39" x1="-65.64" y1="0.5" x2="-64.641" y2="0.5" xlink:href="#linear-gradient-7"/>
    <linearGradient id="linear-gradient-40" x1="-64.946" y1="0.5" x2="-63.946" y2="0.5" xlink:href="#linear-gradient-7"/>
    <linearGradient id="linear-gradient-41" x1="-89.151" y1="0.143" x2="-89.415" y2="2.599" xlink:href="#linear-gradient-14"/>
    <linearGradient id="linear-gradient-42" x1="-210.163" y1="1.014" x2="-210.201" y2="-0.332" xlink:href="#linear-gradient-14"/>
    <linearGradient id="linear-gradient-43" x1="0.557" y1="-0.035" x2="0.295" y2="2.405" xlink:href="#linear-gradient-12"/>
    <linearGradient id="linear-gradient-44" x1="0.541" y1="-0.076" x2="0.395" y2="1.95" xlink:href="#linear-gradient-12"/>
    <linearGradient id="linear-gradient-45" x1="0.762" y1="-3.162" x2="0.144" y2="5.739" xlink:href="#linear-gradient-12"/>
    <linearGradient id="linear-gradient-46" x1="0.494" y1="0.078" x2="0.523" y2="2.226" xlink:href="#linear-gradient-12"/>
    <linearGradient id="linear-gradient-47" x1="0.549" y1="0.072" x2="0.315" y2="2.119" xlink:href="#linear-gradient-12"/>
  </defs>
  <g id="main_img" transform="translate(0.007 0.001)">
    <g id="Illustration" transform="translate(-0.007 -0.001)">
      <path id="Path_1" data-name="Path 1" d="M624.925,614.2c-14.515,15.229-28.249,25.047-39.1,32.807C458.28,738.2,307.35,711.62,275.275,705.128c-47.368-9.576-138.925-28.119-205.131-105.689C-29.991,482.08-14.4,297.185,63.285,175.135,77.494,152.809,152.539,28.9,305.1,9.027,397.423-3,505.04,21.256,582.975,86.32,746.565,222.9,734.91,498.806,624.925,614.2Z" transform="translate(0.007 -4.512)" fill="url(#linear-gradient)"/>
      <path id="Path_2" data-name="Path 2" d="M264.415,31.735c-10.2,65.316-54.079,447.842,297.494,553.48,0,0,93.7-244.4-288.436-556.959a5.594,5.594,0,0,0-9.058,3.479Z" transform="translate(-191.554 -20.113)" fill="#91b3fa"/>
      <path id="Path_3" data-name="Path 3" d="M408.948,273.028s1.566,8.176,4.829,22.387,8.227,34.437,14.979,58.518,15.29,51.967,25.639,81.445c10.308,29.491,22.486,60.538,36.172,90.909a829.016,829.016,0,0,0,45.128,86.731c8.063,13.354,16.326,25.984,24.573,37.651s16.492,22.389,24.489,31.955,15.721,17.986,22.787,25.226l5.186,5.2c1.676,1.668,3.357,3.2,4.936,4.719,3.143,3.061,6.178,5.686,8.88,8.109q1.02.911,1.974,1.765l1.913,1.61,3.477,2.921c2.138,1.839,4.035,3.316,5.563,4.5l4.683,3.686.043.033a1.7,1.7,0,1,1-2.1,2.671h0s-1.64-1.3-4.722-3.745c-1.531-1.219-3.451-2.707-5.612-4.574l-3.505-2.969-1.926-1.63-1.99-1.786c-2.717-2.459-5.773-5.132-8.928-8.219-1.589-1.531-3.28-3.094-4.964-4.78l-5.214-5.268c-7.1-7.326-14.854-15.839-22.866-25.509s-16.254-20.476-24.512-32.236-16.5-24.489-24.547-37.917a837.841,837.841,0,0,1-44.952-87.157c-13.637-30.476-25.693-61.645-35.912-91.22s-18.7-57.536-25.374-81.654c-13.359-48.258-19.543-81.1-19.543-81.1a.722.722,0,0,1,1.416-.27Z" transform="translate(-303.568 -202.975)" fill="#fff" opacity="0.4"/>
      <path id="Path_4" data-name="Path 4" d="M6.8,598.709C2.2,650.454-12.264,952.685,268.9,1017.2c0,0,60.745-196.517-255.18-421.7A4.393,4.393,0,0,0,6.8,598.709Z" transform="translate(-3.789 -442.989)" fill="#bdd0fb"/>
      <path id="Path_5" data-name="Path 5" d="M120.343,781.977s1.7,6.173,5.023,16.887c1.681,5.357,3.724,11.849,6.209,19.254s5.344,15.744,8.571,24.8c3.275,9.04,6.854,18.823,10.874,29.08,3.959,10.28,8.37,21.03,13.01,32.116,4.737,11.043,9.693,22.428,15.05,33.853l4.018,8.6,4.178,8.589c2.75,5.76,5.7,11.451,8.594,17.162.732,1.426,1.441,2.862,2.189,4.278l2.258,4.237q2.255,4.24,4.5,8.464c3.061,5.612,6.186,11.132,9.265,16.632q2.4,4.081,4.773,8.119l2.367,4.028,1.179,2.008,1.222,1.972q2.441,3.936,4.847,7.826c1.607,2.592,3.186,5.173,4.859,7.653,6.52,10.081,13.081,19.642,19.576,28.527l4.847,6.528,2.372,3.191c.778,1.059,1.62,2.056,2.416,3.061l4.755,5.987,2.311,2.9c.765.954,1.505,1.913,2.3,2.806l8.961,10.443,1.064,1.235,1.094,1.176,2.143,2.3,4.1,4.41,3.852,4.138,3.765,3.7c2.4,2.362,4.592,4.535,6.594,6.5.977,1,1.974,1.87,2.9,2.7l2.6,2.332,4.107,3.673,3.421,3.061.056.048a1.477,1.477,0,1,1-1.969,2.2h0l-3.439-3.1-4.148-3.724-2.617-2.362c-.934-.839-1.934-1.722-2.916-2.732l-6.632-6.579-3.757-3.732-3.862-4.181-4.117-4.461q-1.056-1.151-2.148-2.332l-1.1-1.189-1.064-1.245q-4.278-5.023-8.974-10.548c-.8-.906-1.531-1.872-2.3-2.837l-2.311-2.926-4.752-6.015c-.8-1.02-1.64-2.041-2.416-3.1l-2.372-3.217-4.847-6.579c-6.487-8.944-13.035-18.583-19.537-28.726-1.671-2.508-3.245-5.1-4.847-7.714l-4.847-7.87-1.217-1.987-1.173-2.018-2.36-4.051-4.752-8.163c-3.061-5.53-6.181-11.091-9.222-16.719l-4.462-8.507-2.245-4.257c-.745-1.423-1.449-2.865-2.176-4.3-2.882-5.74-5.811-11.456-8.543-17.239l-4.15-8.622-3.99-8.64C172,927.3,167.083,915.889,162.385,904.808c-4.592-11.122-8.969-21.9-12.892-32.215-3.982-10.29-7.525-20.1-10.767-29.164-3.194-9.081-6.051-17.433-8.477-24.869s-4.479-13.938-6.14-19.305c-3.283-10.739-4.964-16.946-4.964-16.946a.626.626,0,0,1,1.207-.332Z" transform="translate(-88.733 -582.159)" fill="#fff" opacity="0.4"/>
      <path id="Path_6" data-name="Path 6" d="M778.971,1.349a35.259,35.259,0,0,0-32.932,34.34c-2.765,111.564-11.734,496.388-7.454,632.759a27.382,27.382,0,0,0,26.481,26.517c71.453,2.337,277.005,8.265,393.877,3.359a46.1,46.1,0,0,0,44.207-45.1c2.428-117.1,7.788-446.459-4.949-597.337a37.628,37.628,0,0,0-33.766-34.282C1086.62,13.825,879.941-5.2,778.971,1.349Z" transform="translate(-549.329 0.001)" fill="url(#linear-gradient-2)"/>
      <path id="Path_7" data-name="Path 7" d="M875.864,158.259a30.726,30.726,0,0,0-29.045,29.366C842.9,279,830.593,582.958,834.5,695.359a31.8,31.8,0,0,0,29.92,30.672c67.568,3.957,240.874,12.673,339.979,4.737a35.746,35.746,0,0,0,32.812-33.738c5.023-93.215,19.441-376.258,15.7-487.391a35.139,35.139,0,0,0-32-33.8C1147.826,169.281,960.079,153.664,875.864,158.259Z" transform="translate(-621.062 -117.268)" fill="#91b3fa"/>
      <path id="Path_8" data-name="Path 8" d="M1463.39,62.372h0a6.423,6.423,0,0,0,6.086,6.426c16.877.883,64.418,3.385,85.667,4.617a6.428,6.428,0,0,0,6.681-7.653l-.135-.7a6.426,6.426,0,0,0-5.724-5.189c-14.362-1.316-57.7-4.964-86.412-3.941a6.421,6.421,0,0,0-6.163,6.444Z" transform="translate(-1090.091 -41.528)" fill="#3f67f9" opacity="0.5"/>
      <path id="Path_9" data-name="Path 9" d="M113.006,1712.008c-11.767-66.793,10.923-129.466,52.939-159.235a99.421,99.421,0,0,0-42.784-2.135C48.879,1562.91,15.684,1641.019,30.745,1726.5s80.864,145.338,146.958,133.69a97.163,97.163,0,0,0,39.478-16.629C167.519,1829.949,124.776,1778.8,113.006,1712.008Z" transform="translate(-20.253 -1154.051)" fill="url(#linear-gradient-3)"/>
      <path id="Path_10" data-name="Path 10" d="M165.948,1552.773a99.421,99.421,0,0,0-42.784-2.135C56.288,1561.686,22.715,1626.1,27.677,1701.22c.87,13.157,11.938,22.915,23.565,20.866l41.309-7.28c10.951-1.929,18.583-12.681,17.782-25.071C106.579,1631.581,128.644,1579.2,165.948,1552.773Z" transform="translate(-20.257 -1154.051)" fill="url(#linear-gradient-4)"/>
      <path id="Path_11" data-name="Path 11" d="M165.948,1552.773a99.421,99.421,0,0,0-42.784-2.135C56.288,1561.686,22.715,1626.1,27.677,1701.22c.87,13.157,11.938,22.915,23.565,20.866l41.309-7.28c10.951-1.929,18.583-12.681,17.782-25.071C106.579,1631.581,128.644,1579.2,165.948,1552.773Z" transform="translate(-20.257 -1154.051)" fill="url(#linear-gradient-5)"/>
      <ellipse id="Ellipse_1" data-name="Ellipse 1" cx="19.18" cy="14.635" rx="19.18" ry="14.635" transform="translate(26.566 517.107) rotate(-9.99)" fill="url(#linear-gradient-6)"/>
      <path id="Path_12" data-name="Path 12" d="M204.786,2070.652a1.469,1.469,0,0,1,2.666-1.021c8.418,12.163,31.455,43.365,54.786,56.12,37.986,20.747,73.231,63.518,64.308,95.034C326.546,2220.778,224.571,2236.124,204.786,2070.652Z" transform="translate(-152.537 -1541.217)" fill="#91b3fa"/>
      <path id="Path_13" data-name="Path 13" d="M241.195,2145.431l.556,1.008.61,1.056,1.245,2.1,2.525,4.189q2.551,4.17,5.206,8.282,5.27,8.245,10.813,16.3c7.449,10.714,15.114,21.252,23.361,31.333,4.148,5.02,8.285,10.048,12.642,14.882s8.824,9.568,13.459,14.129a213.286,213.286,0,0,0,29.927,24.981.428.428,0,0,1-.457.724,164.06,164.06,0,0,1-16.2-11.155c-5.158-4.061-10.074-8.418-14.872-12.892a306.79,306.79,0,0,1-26.514-29.04c-4.12-5.1-8.066-10.331-11.936-15.614s-7.62-10.658-11.2-16.142-7.1-11-10.459-16.627q-2.495-4.229-4.905-8.5c-.8-1.431-1.594-2.86-2.367-4.3l-1.143-2.174-.559-1.1c-.184-.38-.362-.707-.559-1.174a.424.424,0,0,1,.224-.553.429.429,0,0,1,.536.184Z" transform="translate(-179.03 -1597.915)" fill="#fff" opacity="0.43"/>
      <path id="Path_14" data-name="Path 14" d="M551.982,2204.719a1.02,1.02,0,0,1,1.967.03c2.281,9.926,9.076,35.766,20.759,49.863,19.022,22.958,30.675,59.3,16.938,77.19C591.646,2331.8,522.485,2315.642,551.982,2204.719Z" transform="translate(-405.721 -1641.77)" fill="#7d97f4"/>
      <path id="Path_15" data-name="Path 15" d="M578.249,2260.727l.107.765.13.829.281,1.658.576,3.316q.6,3.316,1.276,6.612c.88,4.4,1.847,8.783,2.854,13.155,2.041,8.732,4.336,17.4,7.017,25.95a257.915,257.915,0,0,0,9.262,25.188,156.161,156.161,0,0,0,12.561,23.68.428.428,0,0,1-.117.594.434.434,0,0,1-.576-.092,110.235,110.235,0,0,1-7.653-11.206c-2.319-3.9-4.38-7.933-6.318-12.028a199.55,199.55,0,0,1-9.635-25.358,270.08,270.08,0,0,1-6.658-26.274q-1.349-6.633-2.362-13.331-.492-3.348-.918-6.707l-.388-3.362-.158-1.686-.069-.847c-.018-.3-.049-.538-.051-.919a.424.424,0,0,1,.418-.426.429.429,0,0,1,.423.365Z" transform="translate(-430.116 -1683.675)" fill="#fff" opacity="0.43"/>
      <path id="Path_16" data-name="Path 16" d="M448.055,1670.5c11.767,66.793-13.928,139.264-55.946,169.033,20.2-3.15,31.34-5.115,45.791-7.653,66.1-11.647,107.48-90.386,92.417-175.867s-80.864-145.338-146.958-133.69c-14.451,2.551-45.855,5.229-61.609,10.854C387.089,1540.382,436.286,1603.7,448.055,1670.5Z" transform="translate(-239.673 -1132.911)" fill="url(#linear-gradient-7)"/>
      <path id="Path_17" data-name="Path 17" d="M85.158,1576.069h0l.566-.1c12.533-2.041,25.348-.391,38.093,4.949,12.525,5.245,24.476,13.8,35.519,25.417a166.011,166.011,0,0,1,28.825,42.6,215.135,215.135,0,0,1,17.724,55.865,237.405,237.405,0,0,1,3.15,59.008c-1.408,18.525-5.1,35.5-11.012,50.467-5.867,14.9-13.658,27.106-23.132,36.266-9.693,9.385-20.9,15.25-33.264,17.428-12.5,2.2-25.509.567-38.7-4.859-12.982-5.342-25.455-14.05-37.075-25.886a169.543,169.543,0,0,1-30.317-43.164,204.379,204.379,0,0,1-18.366-56.01,199.736,199.736,0,0,1-1.691-58.469,171.92,171.92,0,0,1,13.642-50.347c6.574-14.589,15.147-27.139,24.792-36.3,9.757-9.265,20.267-14.941,31.233-16.874Zm-1.321-7.5c-49.579,8.739-88.205,86.545-73.382,170.683,14.89,84.5,76.619,146.085,132.484,136.241s87.884-86.925,73-171.421-75.484-144.794-131.458-135.616c-.214.033-.426.069-.638.107Z" transform="translate(-5.397 -1167.67)" fill="#7d97f4"/>
      <ellipse id="Ellipse_2" data-name="Ellipse 2" cx="19.18" cy="14.635" rx="19.18" ry="14.635" transform="translate(38.326 472.287) rotate(-9.99)" fill="url(#linear-gradient-8)"/>
      <ellipse id="Ellipse_3" data-name="Ellipse 3" cx="19.18" cy="12.828" rx="19.18" ry="12.828" transform="translate(58.473 433.731) rotate(-9.99)" fill="url(#linear-gradient-9)"/>
      <path id="Path_18" data-name="Path 18" d="M564.872,1871.644l123.7-20.185c10.329-1.7,14.461-10.512,12.7-21.145L671.941,1652.9a19.266,19.266,0,0,0-21.412-16.239l-126.2,16.282c-10.752,1.487-18.007,11.946-15.9,22.92l34.646,180.132A19.232,19.232,0,0,0,564.872,1871.644Z" transform="translate(-378.463 -1219.031)" fill="url(#linear-gradient-10)"/>
      <path id="Path_19" data-name="Path 19" d="M732.088,1862.314c7.813-1.275,13.073-8.972,11.734-17.129l-28.608-172.972c-1.339-8.089-8.482-13.583-16.262-12.512l-121.1,15.538c-.122.015-.255.036-.367.056a13.936,13.936,0,0,0-9.405,6.145,15.231,15.231,0,0,0-2.237,11.377l33.713,175.635c1.531,8.038,8.811,13.336,16.545,12.063Z" transform="translate(-421.284 -1236.228)" fill="url(#linear-gradient-11)"/>
      <path id="Path_20" data-name="Path 20" d="M765.839,1884.442a2.87,2.87,0,0,0,2.314-3.316l-28.611-172.972a2.782,2.782,0,0,0-3.191-2.421l-122.872,15.816a2.684,2.684,0,0,0-1.844,1.2,2.85,2.85,0,0,0-.444,2.209l33.776,175.612a2.786,2.786,0,0,0,3.25,2.334Z" transform="translate(-455.234 -1270.595)" fill="#91b3fa"/>
      <path id="Path_21" data-name="Path 21" d="M1108.983,2348.882a7.176,7.176,0,0,0-.283,9.948,6.727,6.727,0,0,0,9.694.39,7.178,7.178,0,0,0,.283-9.948,6.732,6.732,0,0,0-9.694-.39Z" transform="translate(-824.489 -1748.31)" fill="url(#linear-gradient-12)"/>
      <ellipse id="Ellipse_4" data-name="Ellipse 4" cx="6.847" cy="7.051" rx="6.847" ry="7.051" transform="translate(256.691 604.149) rotate(-9.99)" fill="url(#linear-gradient-13)"/>
      <ellipse id="Ellipse_5" data-name="Ellipse 5" cx="6.847" cy="7.051" rx="6.847" ry="7.051" transform="translate(232.212 608.267) rotate(-9.99)" fill="#fff" opacity="0.61"/>
      <path id="Path_22" data-name="Path 22" d="M820.773,2397.525a7.176,7.176,0,0,0-.283,9.949,6.733,6.733,0,0,0,9.693.39,7.178,7.178,0,0,0,.283-9.949,6.727,6.727,0,0,0-9.693-.39Z" transform="translate(-609.799 -1784.543)" fill="#fff" opacity="0.61"/>
      <path id="Path_23" data-name="Path 23" d="M798.552,1769.225a4.694,4.694,0,0,0-.186,6.508,4.4,4.4,0,0,0,6.337.255,4.691,4.691,0,0,0,.186-6.507,4.4,4.4,0,0,0-6.337-.255Z" transform="translate(-593.8 -1317.001)" fill="#fff" opacity="0.61"/>
      <path id="Path_24" data-name="Path 24" d="M735.729,1779.828a4.693,4.693,0,0,0-.186,6.51,4.4,4.4,0,0,0,6.336.255,4.7,4.7,0,0,0,.186-6.51,4.4,4.4,0,0,0-6.336-.255Z" transform="translate(-547.001 -1324.9)" fill="#fff" opacity="0.61"/>
      <ellipse id="Ellipse_6" data-name="Ellipse 6" cx="4.477" cy="4.609" rx="4.477" ry="4.609" transform="translate(170.596 457.237) rotate(-9.99)" fill="#fff" opacity="0.61"/>
      <path id="Path_25" data-name="Path 25" d="M827.747,1923.37a57.822,57.822,0,1,1,.008,0Zm-6.788,1.309a42.237,42.237,0,0,0-2.5-8.2,41.058,41.058,0,0,0-4.153-7.515,42.577,42.577,0,0,0-12.548-11.811,45.112,45.112,0,0,0-16.326-6.053,46.373,46.373,0,0,0-17.42.533,45.454,45.454,0,0,0-27.733,18.655,42.524,42.524,0,0,0-6.459,15.079,40.736,40.736,0,0,0,5.982,31.052,42.536,42.536,0,0,0,11.6,11.6,45.441,45.441,0,0,0,32.68,7.015,46.294,46.294,0,0,0,16.372-5.977,45.144,45.144,0,0,0,12.905-11.683,42.567,42.567,0,0,0,7.26-15.629,41.068,41.068,0,0,0,1.066-8.52A42.294,42.294,0,0,0,820.959,1924.679Z" transform="translate(-540.049 -1401.425)" fill="#fff"/>
      <path id="Path_26" data-name="Path 26" d="M840.372,1976.743a17.849,17.849,0,0,0-12.77,10.5,17.83,17.83,0,0,0-15.757-5c-10.063,1.939-16.453,12.688-14.272,24.009a12.017,12.017,0,0,0,.985,2.86l3.951-.765,7.446-12.155a2.551,2.551,0,0,1,4.252-.143l10.875,15.328,5.063-15.561a2.551,2.551,0,0,1,4.543-.627l4.714,7.058,8.928-1.722a2.551,2.551,0,0,1,.964,5.007l-10.591,2.041a2.55,2.55,0,0,1-2.6-1.086l-2.737-4.1-5.007,15.392a2.551,2.551,0,0,1-1.941,1.714l-.1.015a2.55,2.55,0,0,1-2.464-1.046l-11.573-16.326-6.015,9.821a2.55,2.55,0,0,1-1.691,1.171l-3.043.587c7.109,8.977,21.907,18.923,31.759,22.859a6.377,6.377,0,0,0,7.13-1.691c8.319-9.357,24.037-31.2,22.119-41.164C860.371,1982.408,850.436,1974.8,840.372,1976.743Z" transform="translate(-593.8 -1472.269)" fill="#fff"/>
      <path id="Path_27" data-name="Path 27" d="M1409.5,339.119l-1.245,2.245h0a.261.261,0,0,1-.457-.255h0l1.275-2.24a.255.255,0,1,1,.431.242Z" transform="translate(-1048.659 -252.286)" fill="#fff"/>
      <path id="Path_28" data-name="Path 28" d="M1394.4,369l-1.046,2.344h0a.312.312,0,1,1-.569-.255h0l1.079-2.344a.3.3,0,0,1,.538.242Z" transform="translate(-1037.48 -274.567)" fill="#fff"/>
      <path id="Path_29" data-name="Path 29" d="M1381.932,399.815l-.849,2.421h0a.36.36,0,0,1-.679-.237h0l.88-2.428a.345.345,0,0,1,.651.232Z" transform="translate(-1028.262 -297.473)" fill="#fff"/>
      <path id="Path_30" data-name="Path 30" d="M1372,431.646l-.656,2.482h0a.406.406,0,1,1-.786-.207h0l.686-2.49a.4.4,0,0,1,.765.2Z" transform="translate(-1020.932 -321.158)" fill="#fff"/>
      <path id="Path_31" data-name="Path 31" d="M1364.57,464.178l-.467,2.52h0a.455.455,0,0,1-.9-.166h0l.51-2.533a.441.441,0,1,1,.867.163Z" transform="translate(-1015.459 -345.369)" fill="#fff"/>
      <path id="Path_32" data-name="Path 32" d="M1359.5,497.3l-.286,2.551h0a.51.51,0,1,1-1-.112h0l.319-2.551a.49.49,0,0,1,.972.115Z" transform="translate(-1011.728 -370.053)" fill="#fff"/>
      <path id="Path_33" data-name="Path 33" d="M1356.809,530.5l-.112,2.551h0a.554.554,0,1,1-1.1-.048h0l.146-2.576a.536.536,0,0,1,1.072.054Z" transform="translate(-1009.79 -394.737)" fill="#fff"/>
      <path id="Path_34" data-name="Path 34" d="M1356.231,564.038l.051,2.564h0a.6.6,0,0,1-1.2.026h0l-.02-2.587a.587.587,0,0,1,1.171-.018Z" transform="translate(-1009.396 -419.743)" fill="#fff"/>
      <path id="Path_35" data-name="Path 35" d="M1357.342,597.327l.209,2.551h0a.649.649,0,1,1-1.293.107h0l-.184-2.584a.64.64,0,0,1,1.276-.1Z" transform="translate(-1010.15 -444.497)" fill="#fff"/>
      <path id="Path_36" data-name="Path 36" d="M1360.519,630.828l.362,2.538h0a.7.7,0,1,1-1.38.2h0l-.337-2.551a.684.684,0,0,1,1.352-.186Z" transform="translate(-1012.451 -469.499)" fill="#fff"/>
      <path id="Path_37" data-name="Path 37" d="M1365.629,663.679l.51,2.515h0a.745.745,0,0,1-1.462.293h0l-.487-2.551a.73.73,0,1,1,1.433-.281Z" transform="translate(-1016.186 -493.924)" fill="#fff"/>
      <path id="Path_38" data-name="Path 38" d="M1372.7,696.382l.648,2.477h0a.793.793,0,0,1-1.531.4h0l-.625-2.508a.779.779,0,0,1,1.51-.385Z" transform="translate(-1021.392 -518.293)" fill="#fff"/>
      <path id="Path_39" data-name="Path 39" d="M1381.441,728.749l.765,2.444h0a.842.842,0,0,1-1.6.51h0l-.765-2.474a.829.829,0,0,1,1.582-.49Z" transform="translate(-1027.833 -542.441)" fill="#fff"/>
      <path id="Path_40" data-name="Path 40" d="M1391.846,760.4l.888,2.405h0a.891.891,0,0,1-1.671.617h0l-.867-2.436a.875.875,0,1,1,1.645-.6Z" transform="translate(-1035.529 -565.988)" fill="#fff"/>
      <path id="Path_41" data-name="Path 41" d="M1403.732,791.761l.99,2.362h0a.939.939,0,0,1-1.732.727h0l-.974-2.4a.926.926,0,0,1,1.709-.707Z" transform="translate(-1044.333 -589.388)" fill="#fff"/>
      <path id="Path_42" data-name="Path 42" d="M1416.875,822.322l1.087,2.321h0a.987.987,0,0,1-1.786.837h0l-1.069-2.352a.972.972,0,1,1,1.765-.816Z" transform="translate(-1054.058 -612.127)" fill="#fff"/>
      <path id="Path_43" data-name="Path 43" d="M1431.252,852.491l1.174,2.278h0a1.036,1.036,0,0,1-1.842.946h0l-1.158-2.311a1.022,1.022,0,1,1,1.821-.926Z" transform="translate(-1064.708 -634.603)" fill="#fff"/>
      <path id="Path_44" data-name="Path 44" d="M1446.874,882.356l1.252,2.234h0a1.083,1.083,0,1,1-1.89,1.056h0L1445,883.379a1.069,1.069,0,0,1,1.87-1.021Z" transform="translate(-1076.328 -656.92)" fill="#fff"/>
      <path id="Path_45" data-name="Path 45" d="M1463.183,911.175l1.319,2.2h0a1.133,1.133,0,0,1-1.941,1.163h0l-1.306-2.232a1.117,1.117,0,1,1,1.923-1.138Z" transform="translate(-1088.385 -678.329)" fill="#fff"/>
      <path id="Path_46" data-name="Path 46" d="M1480.5,939.743l1.382,2.166h0a1.182,1.182,0,1,1-1.99,1.276v-.013l-1.37-2.194a1.166,1.166,0,0,1,1.972-1.245Z" transform="translate(-1101.231 -699.611)" fill="#fff"/>
      <path id="Path_47" data-name="Path 47" d="M1498.6,967.828l1.436,2.13h0a1.23,1.23,0,1,1-2.041,1.375v-.013l-1.421-2.158a1.215,1.215,0,1,1,2.02-1.349Z" transform="translate(-1114.657 -720.53)" fill="#fff"/>
      <path id="Path_48" data-name="Path 48" d="M1517.449,995.636l1.482,2.094h0a1.278,1.278,0,1,1-2.087,1.477h0l-1.467-2.125a1.263,1.263,0,0,1,2.069-1.446Z" transform="translate(-1128.664 -741.28)" fill="#fff"/>
      <path id="Path_49" data-name="Path 49" d="M873.086,673.669l1.6,2.013a.626.626,0,1,1-.974.786h0l-1.592-2.028a.617.617,0,0,1,.969-.765Z" transform="translate(-649.551 -501.651)" fill="#fff"/>
      <path id="Path_50" data-name="Path 50" d="M894.022,699.8l1.643,1.977a.664.664,0,1,1-1.02.849h0l-1.633-2a.649.649,0,0,1,1.005-.821Z" transform="translate(-665.102 -521.113)" fill="#fff"/>
      <path id="Path_51" data-name="Path 51" d="M915.521,725.478l1.684,1.944a.691.691,0,1,1-1.041.911h0l-1.671-1.964a.681.681,0,0,1,1.036-.885Z" transform="translate(-681.091 -540.241)" fill="#fff"/>
      <path id="Path_52" data-name="Path 52" d="M937.534,750.7l1.719,1.908h0a.724.724,0,1,1-1.077.969h0l-1.709-1.929a.715.715,0,0,1,1.066-.954Z" transform="translate(-697.446 -559.021)" fill="#fff"/>
      <path id="Path_53" data-name="Path 53" d="M960.048,775.49l1.76,1.875h0a.765.765,0,1,1-1.1,1.036h0l-1.75-1.9a.748.748,0,0,1,1.094-1.021Z" transform="translate(-714.182 -577.489)" fill="#fff"/>
      <path id="Path_54" data-name="Path 54" d="M983.058,799.828l1.786,1.839h0a.791.791,0,1,1-1.13,1.1h0l-1.786-1.86a.781.781,0,0,1,1.122-1.087Z" transform="translate(-731.282 -595.621)" fill="#fff"/>
      <path id="Path_55" data-name="Path 55" d="M1006.577,823.734l1.829,1.8h0a.824.824,0,1,1-1.156,1.173h0l-1.824-1.824a.814.814,0,0,1,1.146-1.156Z" transform="translate(-748.781 -613.44)" fill="#fff"/>
      <path id="Path_56" data-name="Path 56" d="M1030.51,847.08l1.867,1.765h0a.857.857,0,1,1-1.176,1.245h0l-1.86-1.786a.847.847,0,1,1,1.168-1.227Z" transform="translate(-766.569 -630.822)" fill="#fff"/>
      <path id="Path_57" data-name="Path 57" d="M1054.934,869.981l1.9,1.727h0a.889.889,0,1,1-1.194,1.316h0l-1.9-1.75a.88.88,0,1,1,1.189-1.3Z" transform="translate(-784.73 -647.881)" fill="#fff"/>
      <path id="Path_58" data-name="Path 58" d="M1079.822,892.4l1.936,1.689h0a.922.922,0,0,1-1.212,1.39h0l-1.931-1.712a.912.912,0,0,1,1.2-1.37Z" transform="translate(-803.238 -664.586)" fill="#fff"/>
      <path id="Path_59" data-name="Path 59" d="M1105.207,914.391l1.969,1.648h0a.955.955,0,0,1-1.227,1.464h0l-1.964-1.671a.946.946,0,0,1,1.219-1.446Z" transform="translate(-822.134 -680.983)" fill="#fff"/>
      <path id="Path_60" data-name="Path 60" d="M1130.885,935.639l2,1.61h0a.99.99,0,0,1-1.24,1.531h0l-2-1.633a.982.982,0,0,1,1.232-1.531Z" transform="translate(-841.213 -696.787)" fill="#fff"/>
      <path id="Path_61" data-name="Path 61" d="M1157.352,956.776l2.041,1.569h0a1.021,1.021,0,1,1-1.25,1.615h0l-2.041-1.592a1.02,1.02,0,0,1,1.242-1.6Z" transform="translate(-860.971 -712.604)" fill="#fff"/>
      <path id="Path_62" data-name="Path 62" d="M1183.67,976.913l2.064,1.531h0a1.054,1.054,0,1,1-1.255,1.694h0l-2.064-1.551a1.044,1.044,0,0,1,1.25-1.673Z" transform="translate(-880.478 -727.557)" fill="#fff"/>
      <path id="Path_63" data-name="Path 63" d="M1210.668,996.75l2.094,1.487h0a1.093,1.093,0,1,1-1.26,1.786h0l-2.094-1.513a1.077,1.077,0,0,1,1.255-1.75Z" transform="translate(-900.563 -742.346)" fill="#fff"/>
      <path id="Path_64" data-name="Path 64" d="M1238.062,1015.975l2.122,1.444h0a1.12,1.12,0,1,1-1.26,1.852h0l-2.122-1.469a1.111,1.111,0,0,1,1.258-1.832Z" transform="translate(-920.945 -756.66)" fill="#fff"/>
      <path id="Path_65" data-name="Path 65" d="M1265.822,1034.684l2.153,1.4h0a1.153,1.153,0,1,1-1.26,1.931h0l-2.15-1.426a1.143,1.143,0,1,1,1.255-1.91Z" transform="translate(-941.6 -770.604)" fill="#fff"/>
      <path id="Path_66" data-name="Path 66" d="M1293.97,1052.817l2.178,1.357h0a1.186,1.186,0,1,1-1.255,2.013h0l-2.181-1.383a1.177,1.177,0,1,1,1.252-1.992Z" transform="translate(-962.542 -784.115)" fill="#fff"/>
      <path id="Path_67" data-name="Path 67" d="M1322.58,1070.462l2.2,1.314h0a1.219,1.219,0,1,1-1.25,2.094h0l-2.207-1.339a1.209,1.209,0,0,1,1.245-2.071Z" transform="translate(-983.859 -797.283)" fill="#fff"/>
      <path id="Path_68" data-name="Path 68" d="M1351.328,1087.4l2.232,1.275h0a1.252,1.252,0,0,1-1.237,2.176h0l-2.235-1.3a1.241,1.241,0,0,1,1.235-2.153Z" transform="translate(-1005.227 -809.891)" fill="#fff"/>
      <path id="Path_69" data-name="Path 69" d="M1380.6,1103.844l2.258,1.222h0a1.284,1.284,0,1,1-1.224,2.258h0l-2.26-1.247a1.276,1.276,0,0,1,1.222-2.237Z" transform="translate(-1027.042 -822.16)" fill="#fff"/>
      <path id="Path_70" data-name="Path 70" d="M697.549,1242.09l2.551-.271a.765.765,0,0,1,.158,1.508h0l-2.551.255h0a.747.747,0,1,1-.15-1.487Z" transform="translate(-519.114 -925.043)" fill="#fff"/>
      <path id="Path_71" data-name="Path 71" d="M730.978,1238.983l2.569-.214a.793.793,0,0,1,.133,1.579h0l-2.551.194h0a.782.782,0,1,1-.122-1.559Z" transform="translate(-543.995 -922.77)" fill="#fff"/>
      <path id="Path_72" data-name="Path 72" d="M764.549,1236.583l2.574-.163a.826.826,0,0,1,.1,1.648h0l-2.566.14h0a.816.816,0,0,1-.1-1.628Z" transform="translate(-568.987 -921.021)" fill="#fff"/>
      <path id="Path_73" data-name="Path 73" d="M798.027,1234.87l2.579-.11a.86.86,0,0,1,.071,1.717h0l-2.569.089h0a.849.849,0,0,1-.066-1.7Z" transform="translate(-593.884 -919.784)" fill="#fff"/>
      <path id="Path_74" data-name="Path 74" d="M831.478,1233.828l2.579-.059a.893.893,0,1,1,.041,1.786h-.013l-2.569.038h0a.883.883,0,0,1-.038-1.765Z" transform="translate(-618.731 -919.046)" fill="#fff"/>
      <path id="Path_75" data-name="Path 75" d="M865.157,1233.46h2.581a.929.929,0,0,1,0,1.854H865.17a.918.918,0,0,1,0-1.834Z" transform="translate(-643.823 -918.816)" fill="#fff"/>
      <path id="Path_76" data-name="Path 76" d="M898.685,1233.61l2.581.046a.962.962,0,1,1-.036,1.921h-.013l-2.566-.066h0a.951.951,0,0,1,.041-1.9Z" transform="translate(-668.753 -918.928)" fill="#fff"/>
      <path id="Path_77" data-name="Path 77" d="M932.183,1234.45l2.579.1a.995.995,0,0,1-.077,1.987h-.015l-2.564-.12h0a.985.985,0,0,1,.084-1.967Z" transform="translate(-693.652 -919.553)" fill="#fff"/>
      <path id="Path_78" data-name="Path 78" d="M965.642,1235.979l2.576.156a1.029,1.029,0,0,1-.125,2.054h-.015l-2.551-.173h0a1.023,1.023,0,0,1,.133-2.041Z" transform="translate(-718.517 -920.687)" fill="#fff"/>
      <path id="Path_79" data-name="Path 79" d="M999.252,1238.307l2.571.214a1.062,1.062,0,1,1-.176,2.117h-.015l-2.551-.235h0a1.054,1.054,0,0,1,.184-2.1Z" transform="translate(-743.543 -922.426)" fill="#fff"/>
      <path id="Path_80" data-name="Path 80" d="M1032.5,1241.385l2.566.278a1.1,1.1,0,1,1-.235,2.181h-.018l-2.551-.3h0a1.088,1.088,0,1,1,.255-2.16Z" transform="translate(-768.228 -924.716)" fill="#fff"/>
      <path id="Path_81" data-name="Path 81" d="M1065.78,1245.316l2.551.347a1.13,1.13,0,0,1-.3,2.24h-.018l-2.551-.365h0a1.12,1.12,0,0,1,.309-2.219Z" transform="translate(-792.949 -927.642)" fill="#fff"/>
      <path id="Path_82" data-name="Path 82" d="M1099.109,1250.15l2.551.418a1.163,1.163,0,0,1-.375,2.3h-.021l-2.525-.436h0a1.154,1.154,0,0,1,.383-2.276Z" transform="translate(-817.743 -931.239)" fill="#fff"/>
      <path id="Path_83" data-name="Path 83" d="M1132.15,1256l2.551.51a1.2,1.2,0,1,1-.462,2.349h-.02l-2.513-.51h0a1.187,1.187,0,0,1,.467-2.327Z" transform="translate(-842.307 -935.605)" fill="#fff"/>
      <path id="Path_84" data-name="Path 84" d="M1164.932,1262.933l2.52.589a1.232,1.232,0,0,1-.561,2.4h-.02l-2.49-.6h-.013a1.221,1.221,0,0,1,.564-2.375Z" transform="translate(-866.648 -940.753)" fill="#fff"/>
      <path id="Path_85" data-name="Path 85" d="M1197.543,1270.974l2.5.689a1.275,1.275,0,0,1-.673,2.439h-.026l-2.462-.7h0a1.256,1.256,0,0,1,.676-2.418Z" transform="translate(-890.882 -946.733)" fill="#fff"/>
      <path id="Path_86" data-name="Path 86" d="M2041.376,633.065l-2.316,1.1h0a.589.589,0,0,1-.51-1.061h0l2.347-1.089a.574.574,0,0,1,.49,1.038Z" transform="translate(-1518.301 -470.756)" fill="#fff"/>
      <path id="Path_87" data-name="Path 87" d="M2011.3,647.9l-2.248,1.235h0a.631.631,0,1,1-.607-1.107h0l2.278-1.219a.618.618,0,1,1,.589,1.087Z" transform="translate(-1495.862 -481.76)" fill="#fff"/>
      <path id="Path_88" data-name="Path 88" d="M1982.128,664.4l-2.176,1.357h0a.676.676,0,1,1-.717-1.145h0l2.2-1.347a.662.662,0,1,1,.7,1.125Z" transform="translate(-1474.098 -493.995)" fill="#fff"/>
      <path id="Path_89" data-name="Path 89" d="M1954.012,682.531l-2.094,1.474h0a.719.719,0,1,1-.826-1.176h0l2.128-1.464a.707.707,0,0,1,.809,1.158Z" transform="translate(-1453.138 -507.47)" fill="#fff"/>
      <path id="Path_90" data-name="Path 90" d="M1926.89,702.18l-2.01,1.587h0a.765.765,0,1,1-.944-1.2h0l2.041-1.579a.75.75,0,0,1,.921,1.181Z" transform="translate(-1432.903 -522.073)" fill="#fff"/>
      <path id="Path_91" data-name="Path 91" d="M1901.1,723.158l-1.923,1.691h0a.807.807,0,1,1-1.066-1.212h0l1.959-1.689a.794.794,0,1,1,1.043,1.2Z" transform="translate(-1413.715 -537.641)" fill="#fff"/>
      <path id="Path_92" data-name="Path 92" d="M1876.352,745.646l-1.829,1.786h0a.85.85,0,1,1-1.189-1.214h0l1.87-1.786a.837.837,0,0,1,1.163,1.2Z" transform="translate(-1395.273 -554.374)" fill="#fff"/>
      <path id="Path_93" data-name="Path 93" d="M1852.9,769.338l-1.735,1.885v.013a.9.9,0,0,1-1.316-1.212h0l1.785-1.888a.88.88,0,1,1,1.291,1.2Z" transform="translate(-1377.815 -571.982)" fill="#fff"/>
      <path id="Path_94" data-name="Path 94" d="M1830.629,794.247,1829,796.221h0a.937.937,0,0,1-1.444-1.194h0l1.671-1.979a.925.925,0,0,1,1.421,1.184Z" transform="translate(-1361.2 -590.501)" fill="#fff"/>
      <path id="Path_95" data-name="Path 95" d="M1809.684,820.333l-1.531,2.059h0a.982.982,0,1,1-1.577-1.168h0l1.564-2.066a.967.967,0,1,1,1.548,1.158Z" transform="translate(-1345.571 -609.909)" fill="#fff"/>
      <path id="Path_96" data-name="Path 96" d="M1790.384,847.84l-1.413,2.133v.015a1.025,1.025,0,0,1-1.709-1.133h0l1.454-2.145a1.02,1.02,0,0,1,1.681,1.122Z" transform="translate(-1331.219 -630.467)" fill="#fff"/>
      <path id="Path_97" data-name="Path 97" d="M1772.472,875.783l-1.276,2.206V878a1.067,1.067,0,0,1-1.839-1.084h0l1.337-2.222a1.056,1.056,0,0,1,1.813,1.079Z" transform="translate(-1317.899 -651.214)" fill="#fff"/>
      <path id="Path_98" data-name="Path 98" d="M1756.014,904.827l-1.176,2.27v.015a1.112,1.112,0,1,1-1.974-1.021h0l1.217-2.3a1.1,1.1,0,0,1,1.947,1.02Z" transform="translate(-1305.614 -672.832)" fill="#fff"/>
      <path id="Path_99" data-name="Path 99" d="M1741.373,934.658l-1.051,2.329V937a1.156,1.156,0,0,1-2.1-.952h0l1.09-2.352a1.141,1.141,0,1,1,2.076.949Z" transform="translate(-1294.749 -695.026)" fill="#fff"/>
      <path id="Path_100" data-name="Path 100" d="M1728.252,965.3l-.921,2.383v.018a1.2,1.2,0,1,1-2.237-.862v-.013l.959-2.408a1.186,1.186,0,0,1,2.209.865Z" transform="translate(-1284.978 -717.842)" fill="#fff"/>
      <path id="Path_101" data-name="Path 101" d="M1716.923,996.845l-.786,2.428v.021a1.243,1.243,0,1,1-2.365-.765h0l.824-2.462a1.23,1.23,0,0,1,2.334.765Z" transform="translate(-1276.559 -741.39)" fill="#fff"/>
      <path id="Path_102" data-name="Path 102" d="M1707.4,1028.843l-.643,2.469v.023a1.287,1.287,0,1,1-2.49-.65h0l.681-2.505a1.275,1.275,0,0,1,2.462.656Z" transform="translate(-1269.492 -765.243)" fill="#fff"/>
      <g id="Group_1" data-name="Group 1" transform="translate(309.243 255.116)" opacity="0.48">
        <path id="Path_103" data-name="Path 103" d="M1281.13,1177.108a98.99,98.99,0,0,1-48.176-33.251c-15.431-19.522-22.614-43.365-20.221-67.15a83.553,83.553,0,0,1,32.906-58.972c19.086-14.446,43.2-20.305,67.9-16.5a98.731,98.731,0,0,1,62.561,36.585c15.431,19.522,22.611,43.365,20.221,67.15h0a83.56,83.56,0,0,1-32.907,58.972c-19.086,14.443-43.2,20.305-67.9,16.5a98.379,98.379,0,0,1-14.387-3.334Zm42.723-159.755a79.978,79.978,0,0,0-11.67-2.7,73.287,73.287,0,0,0-55.913,13.749,71.749,71.749,0,0,0-28.147,50.676,79.849,79.849,0,0,0,17.254,57.668,81.392,81.392,0,0,0,51.487,30.282,73.311,73.311,0,0,0,55.913-13.75,71.753,71.753,0,0,0,28.147-50.679h0a79.839,79.839,0,0,0-17.254-57.666,81.864,81.864,0,0,0-39.817-27.588Z" transform="translate(-1212.282 -1000.101)" fill="#fff"/>
        <path id="Path_104" data-name="Path 104" d="M1411.034,1248.452c-24.578-7.678-41.085-33.613-38.4-60.332,1.531-15.119,8.74-28.279,20.333-37.052a47.582,47.582,0,0,1,36.223-9.227,50.055,50.055,0,0,1,7.275,1.686c24.578,7.676,41.085,33.613,38.4,60.329-1.53,15.122-8.742,28.279-20.333,37.054a47.582,47.582,0,0,1-36.223,9.224A50.08,50.08,0,0,1,1411.034,1248.452Z" transform="translate(-1331.517 -1105.265)" fill="#fff"/>
      </g>
      <path id="Path_105" data-name="Path 105" d="M1826.23,1522.75l1.074,10.915,7.734-3.1-1.115-7.811Z" transform="translate(-1360.375 -1134.311)" fill="url(#linear-gradient-14)"/>
      <path id="Path_106" data-name="Path 106" d="M1576.245,1332.148,1591.4,1332l-1.092,2.661c11.658,5.885,19.938,20.751,19.938,38.174,0,16.984-7.867,31.547-19.063,37.718l.036,3.156-10.678-.043c-.441.026-.885.043-1.332.043-17.142,0-31.037-18.3-31.037-40.873C1548.17,1351.576,1560.493,1334.112,1576.245,1332.148Z" transform="translate(-1153.245 -992.219)" fill="url(#linear-gradient-15)"/>
      <ellipse id="Ellipse_7" data-name="Ellipse 7" cx="31.037" cy="40.876" rx="31.037" ry="40.876" transform="translate(405.72 339.74)" fill="url(#linear-gradient-16)"/>
      <path id="Path_107" data-name="Path 107" d="M1580.133,1411.9a1,1,0,0,0,.612-1.786c-.138-.1-13.6-10.91-12.211-38.161,1.387-27.154,20.328-33.085,20.519-33.141a1,1,0,0,0-.566-1.911c-.2.061-20.484,6.4-21.938,34.947-1.449,28.366,12.39,39.386,12.982,39.843A.99.99,0,0,0,1580.133,1411.9Z" transform="translate(-1166.857 -995.85)" fill="#bdd0fb"/>
      <path id="Path_108" data-name="Path 108" d="M2266.138,1536.145c.531,0,8.288-11.989,4.314-15.326s-17.969-4.461-19.056-3.951-1.717,19.277-1.717,19.277Z" transform="translate(-1675.806 -1129.842)" fill="url(#linear-gradient-17)"/>
      <path id="Path_109" data-name="Path 109" d="M1892.787,1501.245l-1.082-.1-187-16.719s-4.166,1.785,0,5.163,182.5,21.083,182.5,21.083Z" transform="translate(-1268.469 -1105.766)" fill="url(#linear-gradient-18)"/>
      <path id="Path_110" data-name="Path 110" d="M1825.334,1506.689s-1.589-3.117,2.429-3.117,4.847-1.23,4.847-1.23-3.2-2.462-1.229-2.551,4.479.255,5.331,1.722-1.311,5.168-1.311,5.168S1826.347,1508.74,1825.334,1506.689Z" transform="translate(-1359.477 -1117.199)" fill="url(#linear-gradient-19)"/>
      <path id="Path_111" data-name="Path 111" d="M2166.054,1659.34l7.436,14.872s29.746,60.367,18.366,59.931-46.806-51.181-46.806-51.181Z" transform="translate(-1597.867 -1236.058)" fill="url(#linear-gradient-20)"/>
      <path id="Path_112" data-name="Path 112" d="M1607.707,2079.313c-3.25,0-61.145-5.076-67.051,6.734s3.826,134.688,3.826,134.688h15.094l8.321-102.8,39.82,7.426Z" transform="translate(-1146.231 -1548.092)" fill="url(#linear-gradient-21)"/>
      <path id="Path_113" data-name="Path 113" d="M1853.55,2301.428s35.871,94.488,44.182,93.618,98.424-16.624,98.424-16.624l-2.186-15.306-83.114-1.75L1899.481,2287Z" transform="translate(-1380.725 -1703.608)" fill="url(#linear-gradient-22)"/>
      <path id="Path_114" data-name="Path 114" d="M1823.29,2273.614l7.944,14.375,55.01-10.808v-15.93Z" transform="translate(-1358.185 -1684.427)" fill="url(#linear-gradient-23)"/>
      <path id="Path_115" data-name="Path 115" d="M1842.3,1469s-68.239,3.281-72.833,41.34,9.841,109.577,9.841,109.577l70.211-6.561s-7.219-72.19,5.247-80.052l10.714,14,25.807-28.871S1865.918,1476.872,1842.3,1469Z" transform="translate(-1317.417 -1094.272)" fill="url(#linear-gradient-24)"/>
      <path id="Path_116" data-name="Path 116" d="M1856.089,2034.89s22.7,68.242-23.892,72.833-54.977-11.155-54.977-11.155v-55.117l79.726-6.561Z" transform="translate(-1323.866 -1515.809)" fill="url(#linear-gradient-25)"/>
      <path id="Path_117" data-name="Path 117" d="M1915.021,1302l11.954,42.09s-20.428,10.969-35.531,8.012l-4.153-37.115Z" transform="translate(-1405.859 -969.872)" fill="url(#linear-gradient-26)"/>
      <path id="Path_118" data-name="Path 118" d="M1856.591,1178.875c-.319.579-7.2,43.62-7.2,43.62l24.655,3.408,12.583-39.817S1861.912,1169.209,1856.591,1178.875Z" transform="translate(-1377.627 -875.929)" fill="url(#linear-gradient-27)"/>
      <path id="Path_119" data-name="Path 119" d="M1870.711,1145.412l-4.982,21.479a3.149,3.149,0,0,1-.3.783c-.834,1.518-4.081,6.528-9,2.893-4.467-3.3-8.594-6.242-12.125-6.464a3.076,3.076,0,0,0-3.237,2.584,134.356,134.356,0,0,0-1.786,20.591,3.062,3.062,0,0,0,2.852,3.013c4.783.365,14.89.854,23.111-.658a3.077,3.077,0,0,0,2.38-2.064c1.727-5.247,7.03-21.172,9.183-25.384,2.041-3.951,8.033-4.518,10.568-4.576a3.021,3.021,0,0,0,2.173-.99c1.982-2.171,5.612-7.556-.928-12.785a3.084,3.084,0,0,1-.421-4.421c2.26-2.658,4.49-7.173-.3-11.926-4.872-4.834-10.426-3.357-13.744-1.707a3.076,3.076,0,0,1-3.826-.949,2.433,2.433,0,0,0-2.63-.888,3.033,3.033,0,0,1-3.572-2.732c-.321-3.408-2.02-7.571-8.127-8.747-10.836-2.089-16.237,8.76-16.038,16.382s12.076,9.216,18.813,7.949c5.125-.967,9.533,3.724,11.352,6.03A3.061,3.061,0,0,1,1870.711,1145.412Z" transform="translate(-1370.092 -828.49)" fill="url(#linear-gradient-28)"/>
      <path id="Path_120" data-name="Path 120" d="M1979.06,1295.6s.225-13.3,5.612-14.54,11.188,2.635,6.592,10.6C1985.537,1301.556,1979.06,1295.6,1979.06,1295.6Z" transform="translate(-1474.219 -954.105)" fill="url(#linear-gradient-29)"/>
      <path id="Path_121" data-name="Path 121" d="M2243.884,1617.134s-9.272-16.226-10.8-35.59,0-54.023,0-54.023-12.468-.765-12.14-7.652,4.484-19.359,7.326-13.775a67.1,67.1,0,0,1,4.143,9.842s13.466,5.25,13.137,11.811S2273.388,1633.042,2243.884,1617.134Z" transform="translate(-1654.394 -1120.861)" fill="url(#linear-gradient-30)"/>
      <path id="Path_122" data-name="Path 122" d="M2426.61,1368.231l18.665-.2-1.342,3.6c14.361,7.954,24.563,28.06,24.563,51.6,0,22.958-9.693,42.641-23.486,50.985l.043,4.265-13.155-.059c-.546.033-1.092.059-1.64.059-21.119,0-38.238-24.744-38.238-55.25C2392.015,1394.49,2407.2,1370.884,2426.61,1368.231Z" transform="translate(-1781.837 -1019.059)" fill="url(#linear-gradient-31)"/>
      <ellipse id="Ellipse_8" data-name="Ellipse 8" cx="38.238" cy="55.253" rx="38.238" ry="55.253" transform="translate(623.483 348.915)" fill="url(#linear-gradient-32)"/>
      <path id="Path_123" data-name="Path 123" d="M2432.047,1476.751a.995.995,0,0,0,.646-1.755c-.168-.146-16.892-14.844-15.165-51.913,1.719-36.968,25.233-45.044,25.468-45.12a1,1,0,0,0-.615-1.9c-.255.082-25.06,8.6-26.846,46.921-1.786,38.134,15.147,52.916,15.869,53.528A.988.988,0,0,0,2432.047,1476.751Z" transform="translate(-1799.255 -1025.019)" fill="#bdd0fb"/>
      <path id="Path_124" data-name="Path 124" d="M2597.352,1573.17s-6.561,1.768-3.938,5.423,9.183,3.653,9.183,3.653l31.277,2.844s5.467-6.561,0-8.311S2597.352,1573.17,2597.352,1573.17Z" transform="translate(-1931.396 -1171.869)" fill="url(#linear-gradient-33)"/>
      <path id="Path_125" data-name="Path 125" d="M2249.68,1511.251s.439-7.951,7.765-6.888,16.458,6.632,12.165,8.767S2252.414,1514.113,2249.68,1511.251Z" transform="translate(-1675.806 -1120.542)" fill="url(#linear-gradient-34)"/>
      <path id="Path_126" data-name="Path 126" d="M2389.148,2575.717s-.928-13.667-2.349-15.305c3.826-4.923,8.994-10.5,15.229-7.875s3.571,54.789,3.571,54.789-23.469,4.592-24.792,0,8.344-8.857,8.344-8.857Z" transform="translate(-1773.391 -1900.909)" fill="url(#linear-gradient-35)"/>
      <path id="Path_127" data-name="Path 127" d="M1457.164,2708.408s4.178,14.512,0,14.451-57.1,1.329-57.1,1.329-2.507-16.239,18.111-15.78,21.172-3.438,21.172-3.438S1454.379,2710.179,1457.164,2708.408Z" transform="translate(-1042.845 -2014.958)" fill="url(#linear-gradient-36)"/>
      <path id="Path_128" data-name="Path 128" d="M2281.36,2582.78l2.584,21.325,4.592-.8,1.653-.276.944-.171,1.64-.288,22.06-3.826s1.531-13.347-2.191-15.306l-21.339-.447-1.127-.028-1.51-.026-1.115-.026Z" transform="translate(-1699.405 -1923.938)" fill="#fff"/>
      <path id="Path_129" data-name="Path 129" d="M2315.93,2583.5l.957,19.894,1.64-.288-1.469-19.578Z" transform="translate(-1725.157 -1924.474)" fill="url(#linear-gradient-37)"/>
      <path id="Path_130" data-name="Path 130" d="M2305.64,2583.3l.985,20.392,1.653-.276-1.523-20.09Z" transform="translate(-1717.491 -1924.325)" fill="url(#linear-gradient-38)"/>
      <path id="Path_131" data-name="Path 131" d="M1554.31,2639.545s13.061,8.181,18.042,4.235l-.617-18.152-.061-1.584-.028-1.074-.061-1.576-.11-3.3-16.4-.967-.089,2.62-.041,1.207-.048,1.434-.041,1.2Z" transform="translate(-1157.819 -1949.526)" fill="#fff"/>
      <path id="Path_132" data-name="Path 132" d="M1556.81,2628.586l16.7,2.01-.061-1.574-16.6-1.643Z" transform="translate(-1159.681 -1957.161)" fill="url(#linear-gradient-39)"/>
      <path id="Path_133" data-name="Path 133" d="M1556.46,2638.926l16.877,2.041-.061-1.584-16.775-1.653Z" transform="translate(-1159.42 -1964.871)" fill="url(#linear-gradient-40)"/>
      <path id="Path_134" data-name="Path 134" d="M1831.342,1492.19s-.627-1.446.765-1.324c1.2-2.15-4.592-2.26-9.084-2.7s-5.469,2.982-3.39,3.678S1829.487,1493.917,1831.342,1492.19Z" transform="translate(-1354.683 -1108.521)" fill="url(#linear-gradient-41)"/>
      <path id="Path_135" data-name="Path 135" d="M1847.495,1501.146a.327.327,0,0,0,.153-.617c-.967-.51-1.992-1.314-1.974-1.7,0-.117.2-.217.311-.255,1.617-.686,4.352.712,4.377.724a.329.329,0,1,0,.3-.582c-.125-.064-3.038-1.553-4.936-.747-.569.242-.7.592-.712.842-.044,1.005,1.928,2.1,2.326,2.3A.316.316,0,0,0,1847.495,1501.146Z" transform="translate(-1374.369 -1115.677)" fill="url(#linear-gradient-42)"/>
      <path id="Path_136" data-name="Path 136" d="M1838.1,2302.451c18.318,0,36.386-5.388,36.636-5.464a.748.748,0,1,0-.434-1.431c-.339.1-34.136,10.175-55.709,2.571a.749.749,0,0,0-.51,1.408C1824.164,2301.673,1831.156,2302.451,1838.1,2302.451Z" transform="translate(-1353.941 -1709.957)" fill="#7d97f4"/>
      <path id="Path_137" data-name="Path 137" d="M1288.179,154.8c0,34.909-32.743,63.206-67.652,63.206a63.208,63.208,0,0,1,0-126.415C1255.433,91.59,1288.179,119.89,1288.179,154.8Z" transform="translate(-862.097 -68.226)" fill="url(#linear-gradient-43)"/>
      <path id="Path_138" data-name="Path 138" d="M1313.26,187.984a34.931,34.931,0,1,0-.01.008Zm-6.913,0a42.346,42.346,0,0,0-.9-8.525,41.071,41.071,0,0,0-2.658-8.163,42.548,42.548,0,0,0-10.086-13.974,45.151,45.151,0,0,0-14.884-9.033,46.39,46.39,0,0,0-17.2-2.77,45.462,45.462,0,0,0-30.764,13.071,42.554,42.554,0,0,0-9.183,13.584,40.743,40.743,0,0,0,0,31.631,42.546,42.546,0,0,0,9.183,13.581,45.465,45.465,0,0,0,30.764,13.073,46.339,46.339,0,0,0,17.2-2.778,45.074,45.074,0,0,0,14.884-9.033,42.51,42.51,0,0,0,10.086-13.971,41.07,41.07,0,0,0,2.658-8.163,42.359,42.359,0,0,0,.9-8.53Z" transform="translate(-901.004 -101.411)" fill="#fff" opacity="0.65"/>
      <path id="Path_139" data-name="Path 139" d="M1313.01,332.149l-13.242.37-1.658-21.479,13.214-.75Z" transform="translate(-966.973 -231.138)" fill="#fff"/>
      <path id="Path_140" data-name="Path 140" d="M1383.691,296.212l-14.321.421-2.53-32.789,14.272-1.043Z" transform="translate(-1018.171 -195.762)" fill="#fff"/>
      <path id="Path_141" data-name="Path 141" d="M1459.926,262.591l-14.872.418-3.344-43.34,14.808-1.24Z" transform="translate(-1073.942 -162.71)" fill="#fff"/>
      <path id="Path_142" data-name="Path 142" d="M1354.432,414.906l-58.589.939-.373-4.806,58.561-1.319Z" transform="translate(-965.006 -305.204)" fill="#fff"/>
      <path id="Path_143" data-name="Path 143" d="M1974.161,386.336c0,34.909-32.743,63.209-67.653,63.209a63.208,63.208,0,1,1,0-126.415C1941.418,323.13,1974.161,351.427,1974.161,386.336Z" transform="translate(-1373.09 -240.702)" fill="url(#linear-gradient-44)"/>
      <path id="Path_144" data-name="Path 144" d="M1999.24,419.484a34.892,34.892,0,1,0-.01.008Zm-6.913,0a42.336,42.336,0,0,0-.9-8.525,41.282,41.282,0,0,0-2.658-8.163,42.586,42.586,0,0,0-10.086-13.971,45.169,45.169,0,0,0-14.885-9.033,46.354,46.354,0,0,0-17.206-2.773,45.448,45.448,0,0,0-30.762,13.073,42.488,42.488,0,0,0-9.183,13.584,40.738,40.738,0,0,0,0,31.631,42.525,42.525,0,0,0,9.183,13.584,45.457,45.457,0,0,0,30.762,13.071,46.352,46.352,0,0,0,17.206-2.77,45.169,45.169,0,0,0,14.885-9.033,42.634,42.634,0,0,0,10.076-13.982,41.266,41.266,0,0,0,2.658-8.163,42.374,42.374,0,0,0,.913-8.53Z" transform="translate(-1411.997 -273.851)" fill="#fff" opacity="0.65"/>
      <rect id="Rectangle_2" data-name="Rectangle 2" width="57.283" height="57.982" rx="28.642" transform="translate(506.961 117.281)" fill="#fff"/>
      <path id="Path_145" data-name="Path 145" d="M2069.112,496.63a19.457,19.457,0,0,0-32.848-.01.663.663,0,0,0,.166.86l7.311,5.428c.115.089.255-.054.4-.054h17.091c.146,0,.288.143.4.054l7.306-5.513a.547.547,0,0,0,.168-.765Z" transform="translate(-1516.763 -363.218)" fill="url(#linear-gradient-45)"/>
      <path id="Path_146" data-name="Path 146" d="M2074.137,515.405l-4.062-8.487a.21.21,0,0,0-.4.107l.591,8.5a.238.238,0,0,0,.209.224h3.482a.256.256,0,0,0,.176-.125A.272.272,0,0,0,2074.137,515.405Z" transform="translate(-1541.721 -377.521)" fill="#fff"/>
      <path id="Path_147" data-name="Path 147" d="M522.28,335.526c0,34.909,32.743,63.209,67.65,63.209a63.208,63.208,0,1,0,0-126.415C555.021,272.32,522.28,300.617,522.28,335.526Z" transform="translate(-389.05 -202.854)" fill="url(#linear-gradient-46)"/>
      <path id="Path_148" data-name="Path 148" d="M580.238,349.111a51.867,51.867,0,1,1,19.117,62.416A51.832,51.832,0,0,1,580.238,349.111Zm4.048,27.932a41.115,41.115,0,0,0,2.658,8.163,42.6,42.6,0,0,0,10.084,13.971,45.167,45.167,0,0,0,14.884,9.033,46.4,46.4,0,0,0,17.206,2.77A45.444,45.444,0,0,0,659.88,397.91a42.52,42.52,0,0,0,9.183-13.584,40.738,40.738,0,0,0,0-31.631,42.493,42.493,0,0,0-9.183-13.583,45.458,45.458,0,0,0-30.761-13.073,46.353,46.353,0,0,0-17.206,2.773,45.167,45.167,0,0,0-14.885,9.033,42.539,42.539,0,0,0-10.084,13.971,40.945,40.945,0,0,0-2.658,25.216Z" transform="translate(-429.414 -235.851)" fill="#fff" opacity="0.65"/>
      <path id="Path_149" data-name="Path 149" d="M707.212,392.422a2.574,2.574,0,0,0-4.2,0c-5.665,7.969-20.843,30.279-20.843,40.587a22.943,22.943,0,0,0,45.886,0C728.056,422.7,712.878,400.391,707.212,392.422Zm-6.632,56.434a1.276,1.276,0,0,1-1.245,1,1.165,1.165,0,0,1-.278-.033c-4.941-1.1-8.5-3.469-10.586-7.04-3.617-6.186-1.428-13.663-1.332-13.979a1.275,1.275,0,0,1,2.441.735c-.026.079-1.957,6.762,1.1,11.971,1.719,2.923,4.722,4.882,8.928,5.821a1.276,1.276,0,0,1,.967,1.528Z" transform="translate(-508.153 -291.511)" fill="#fff"/>
      <path id="Path_150" data-name="Path 150" d="M379.67,964.419c0,34.907,32.743,63.206,67.653,63.206a63.208,63.208,0,0,0,0-126.415C412.416,901.21,379.67,929.51,379.67,964.419Z" transform="translate(-282.818 -671.32)" fill="url(#linear-gradient-47)"/>
      <path id="Path_151" data-name="Path 151" d="M437.635,978.058a51.852,51.852,0,1,1,9.256,53.77A51.837,51.837,0,0,1,437.635,978.058Zm4.048,27.932a41.117,41.117,0,0,0,2.658,8.163,42.534,42.534,0,0,0,10.086,13.971,45.127,45.127,0,0,0,14.882,9.033,46.411,46.411,0,0,0,17.206,2.773,45.464,45.464,0,0,0,30.764-13.073,42.556,42.556,0,0,0,9.183-13.583,40.738,40.738,0,0,0,0-31.631,42.555,42.555,0,0,0-9.183-13.584,45.52,45.52,0,0,0-30.764-13.071,46.359,46.359,0,0,0-17.206,2.77,45.128,45.128,0,0,0-14.882,9.033,42.563,42.563,0,0,0-10.086,13.971,41.116,41.116,0,0,0-2.658,8.163,40.7,40.7,0,0,0,0,17.053Z" transform="translate(-323.189 -704.366)" fill="#fff" opacity="0.65"/>
      <rect id="Rectangle_3" data-name="Rectangle 3" width="11.897" height="45.886" rx="2.5" transform="translate(132.542 271.12)" fill="#fff"/>
      <rect id="Rectangle_4" data-name="Rectangle 4" width="4.25" height="16.145" rx="2.125" transform="translate(126.593 285.99)" fill="#fff"/>
      <rect id="Rectangle_5" data-name="Rectangle 5" width="11.897" height="45.886" rx="2.5" transform="translate(193.723 317.003) rotate(180)" fill="#fff"/>
      <rect id="Rectangle_6" data-name="Rectangle 6" width="4.25" height="16.145" rx="2.125" transform="translate(199.669 302.134) rotate(180)" fill="#fff"/>
      <rect id="Rectangle_7" data-name="Rectangle 7" width="33.988" height="6.459" rx="2.5" transform="translate(146.135 290.622)" fill="#fff"/>
    </g>
  </g>
</svg>
